<?xml version="1.0" encoding="UTF-8"?>
<svg xmlns="http://www.w3.org/2000/svg" viewBox="0 0 512 512" role="img" aria-label="木の成長ステージ 27">
  <defs>
    <linearGradient id="bark" x1="0" y1="0" x2="1" y2="1"><stop stop-color="#8b5a2b"/><stop offset="0.52" stop-color="#6f401d"/><stop offset="1" stop-color="#3e2310"/></linearGradient>
    <radialGradient id="ground" cx="50%" cy="45%"><stop stop-color="#c7e6a6" stop-opacity="0.9"/><stop offset="1" stop-color="#9ec77a" stop-opacity="0.18"/></radialGradient>
    <linearGradient id="leaf-0" x1="0" y1="0" x2="1" y2="1"><stop stop-color="#d7f09e"/><stop offset="1" stop-color="#4e9f49"/></linearGradient>
    <linearGradient id="leaf-1" x1="0" y1="0" x2="1" y2="1"><stop stop-color="#bfe884"/><stop offset="1" stop-color="#3c8a43"/></linearGradient>
    <linearGradient id="leaf-2" x1="0" y1="0" x2="1" y2="1"><stop stop-color="#f2e986"/><stop offset="1" stop-color="#6bab43"/></linearGradient>
    <filter id="soft"><feGaussianBlur stdDeviation="3"/></filter>
  </defs>
  <ellipse cx="256" cy="445" rx="69.4" ry="14.8" fill="url(#ground)" opacity="0.4" filter="url(#soft)"/>
  <path d="M 256.0 427.0 Q 236.4 435.5 220.1 444.0" fill="none" stroke="url(#bark)" stroke-width="3.3" stroke-linecap="round" opacity="0.7"/><path d="M 256.0 429.0 Q 274.1 437.0 295.4 445.0" fill="none" stroke="url(#bark)" stroke-width="3.0" stroke-linecap="round" opacity="0.7"/><path d="M 256.0 432.0 Q 243.3 445.5 236.0 459.0" fill="none" stroke="url(#bark)" stroke-width="2.3" stroke-linecap="round" opacity="0.6"/>
  <path d="M 256 432 C 253.7 389.5, 258.8 341.7, 256 299.2" fill="none" stroke="url(#bark)" stroke-width="16.6" stroke-linecap="round"/>
  <path d="M 256.0 408.1 Q 245.6 396.5 230.6 385.0" fill="none" stroke="url(#bark)" stroke-width="6.9" stroke-linecap="round" opacity="0.5"/><path d="M 256.0 326.0 Q 280.8 308.0 298.5 289.9" fill="none" stroke="url(#bark)" stroke-width="5.2" stroke-linecap="round" opacity="0.5"/><path d="M 256.0 334.3 Q 239.7 318.7 217.2 303.1" fill="none" stroke="url(#bark)" stroke-width="5.4" stroke-linecap="round" opacity="0.4"/><path d="M 256.0 342.5 Q 276.2 329.4 291.1 316.4" fill="none" stroke="url(#bark)" stroke-width="5.6" stroke-linecap="round" opacity="0.4"/>
  <g><ellipse cx="253.3" cy="330.2" rx="4.9" ry="6.9" transform="rotate(147.4 253.3 330.2)" fill="url(#leaf-0)" opacity="0.96"/><ellipse cx="251.6" cy="314.3" rx="5.6" ry="7.8" transform="rotate(284.9 251.6 314.3)" fill="url(#leaf-1)" opacity="0.96"/><ellipse cx="271.6" cy="332.0" rx="6.2" ry="8.7" transform="rotate(422.4 271.6 332.0)" fill="url(#leaf-2)" opacity="0.96"/><ellipse cx="238.2" cy="328.7" rx="5.3" ry="7.3" transform="rotate(559.9 238.2 328.7)" fill="url(#leaf-0)" opacity="0.96"/><ellipse cx="267.7" cy="310.2" rx="5.9" ry="8.2" transform="rotate(697.4 267.7 310.2)" fill="url(#leaf-1)" opacity="0.96"/><ellipse cx="260.2" cy="346.8" rx="4.9" ry="6.9" transform="rotate(834.9 260.2 346.8)" fill="url(#leaf-2)" opacity="0.96"/><ellipse cx="234.5" cy="310.7" rx="5.6" ry="7.8" transform="rotate(972.4 234.5 310.7)" fill="url(#leaf-0)" opacity="0.96"/><ellipse cx="282.2" cy="323.4" rx="6.2" ry="8.7" transform="rotate(1110.0 282.2 323.4)" fill="url(#leaf-1)" opacity="0.96"/><ellipse cx="235.0" cy="343.4" rx="5.3" ry="7.3" transform="rotate(1247.5 235.0 343.4)" fill="url(#leaf-2)" opacity="0.96"/><ellipse cx="256.6" cy="295.6" rx="5.9" ry="8.2" transform="rotate(1385.0 256.6 295.6)" fill="url(#leaf-0)" opacity="0.96"/><ellipse cx="278.1" cy="345.8" rx="4.9" ry="6.9" transform="rotate(1522.5 278.1 345.8)" fill="url(#leaf-1)" opacity="0.96"/><ellipse cx="223.5" cy="322.1" rx="5.6" ry="7.8" transform="rotate(1660.0 223.5 322.1)" fill="url(#leaf-2)" opacity="0.96"/><ellipse cx="287.1" cy="305.7" rx="6.2" ry="8.7" transform="rotate(1797.5 287.1 305.7)" fill="url(#leaf-0)" opacity="0.96"/><ellipse cx="248.1" cy="358.8" rx="5.3" ry="7.3" transform="rotate(1935.0 248.1 358.8)" fill="url(#leaf-1)" opacity="0.96"/><ellipse cx="236.4" cy="298.3" rx="5.9" ry="8.2" transform="rotate(2072.5 236.4 298.3)" fill="url(#leaf-2)" opacity="0.96"/><ellipse cx="293.7" cy="334.0" rx="4.9" ry="6.9" transform="rotate(2210.0 293.7 334.0)" fill="url(#leaf-0)" opacity="0.96"/><ellipse cx="214.9" cy="342.0" rx="5.6" ry="7.8" transform="rotate(2347.5 214.9 342.0)" fill="url(#leaf-1)" opacity="0.96"/><ellipse cx="272.2" cy="289.7" rx="6.2" ry="8.7" transform="rotate(2485.0 272.2 289.7)" fill="url(#leaf-2)" opacity="0.96"/><ellipse cx="271.1" cy="357.1" rx="5.3" ry="7.3" transform="rotate(2622.5 271.1 357.1)" fill="url(#leaf-0)" opacity="0.96"/><ellipse cx="214.6" cy="308.1" rx="5.9" ry="8.2" transform="rotate(2760.1 214.6 308.1)" fill="url(#leaf-1)" opacity="0.96"/><ellipse cx="305.5" cy="312.8" rx="4.9" ry="6.9" transform="rotate(2897.6 305.5 312.8)" fill="url(#leaf-2)" opacity="0.96"/><ellipse cx="231.3" cy="359.2" rx="5.6" ry="7.8" transform="rotate(3035.1 231.3 359.2)" fill="url(#leaf-0)" opacity="0.96"/><ellipse cx="246.9" cy="287.5" rx="6.2" ry="8.7" transform="rotate(3172.6 246.9 287.5)" fill="url(#leaf-1)" opacity="0.96"/><ellipse cx="298.8" cy="351.0" rx="5.3" ry="7.3" transform="rotate(3310.1 298.8 351.0)" fill="url(#leaf-2)" opacity="0.96"/><ellipse cx="200.7" cy="330.1" rx="5.9" ry="8.2" transform="rotate(3447.6 200.7 330.1)" fill="url(#leaf-0)" opacity="0.96"/><ellipse cx="288.8" cy="293.6" rx="4.9" ry="6.9" transform="rotate(3585.1 288.8 293.6)" fill="url(#leaf-1)" opacity="0.96"/><ellipse cx="257.2" cy="367.6" rx="5.6" ry="7.8" transform="rotate(3722.6 257.2 367.6)" fill="url(#leaf-2)" opacity="0.96"/></g>
</svg>