<?xml version="1.0" encoding="UTF-8"?>
<svg xmlns="http://www.w3.org/2000/svg" viewBox="0 0 512 512" role="img" aria-label="木の成長ステージ 37">
  <defs>
    <linearGradient id="bark" x1="0" y1="0" x2="1" y2="1"><stop stop-color="#8b5a2b"/><stop offset="0.52" stop-color="#6f401d"/><stop offset="1" stop-color="#3e2310"/></linearGradient>
    <radialGradient id="ground" cx="50%" cy="45%"><stop stop-color="#c7e6a6" stop-opacity="0.9"/><stop offset="1" stop-color="#9ec77a" stop-opacity="0.18"/></radialGradient>
    <linearGradient id="leaf-0" x1="0" y1="0" x2="1" y2="1"><stop stop-color="#d7f09e"/><stop offset="1" stop-color="#4e9f49"/></linearGradient>
    <linearGradient id="leaf-1" x1="0" y1="0" x2="1" y2="1"><stop stop-color="#bfe884"/><stop offset="1" stop-color="#3c8a43"/></linearGradient>
    <linearGradient id="leaf-2" x1="0" y1="0" x2="1" y2="1"><stop stop-color="#f2e986"/><stop offset="1" stop-color="#6bab43"/></linearGradient>
    <filter id="soft"><feGaussianBlur stdDeviation="3"/></filter>
  </defs>
  <ellipse cx="256" cy="445" rx="78.3" ry="16.7" fill="url(#ground)" opacity="0.4" filter="url(#soft)"/>
  <path d="M 256.0 427.0 Q 232.9 435.5 213.3 444.0" fill="none" stroke="url(#bark)" stroke-width="4.2" stroke-linecap="round" opacity="1.0"/><path d="M 256.0 429.0 Q 277.9 437.0 302.9 445.0" fill="none" stroke="url(#bark)" stroke-width="3.8" stroke-linecap="round" opacity="1.0"/><path d="M 256.0 432.0 Q 241.4 445.5 232.2 459.0" fill="none" stroke="url(#bark)" stroke-width="2.9" stroke-linecap="round" opacity="0.8"/>
  <path d="M 256 432 C 253.1 379.8, 259.6 321.1, 256 268.9" fill="none" stroke="url(#bark)" stroke-width="21.0" stroke-linecap="round"/>
  <path d="M 256.0 402.6 Q 243.6 388.6 225.5 374.5" fill="none" stroke="url(#bark)" stroke-width="8.8" stroke-linecap="round" opacity="0.7"/><path d="M 256.0 301.9 Q 285.6 281.3 307.0 260.7" fill="none" stroke="url(#bark)" stroke-width="6.6" stroke-linecap="round" opacity="0.6"/><path d="M 256.0 312.0 Q 236.3 293.9 209.4 275.8" fill="none" stroke="url(#bark)" stroke-width="6.8" stroke-linecap="round" opacity="0.6"/><path d="M 256.0 322.1 Q 280.2 306.5 298.1 290.9" fill="none" stroke="url(#bark)" stroke-width="7.0" stroke-linecap="round" opacity="0.6"/><path d="M 256.0 332.2 Q 241.6 310.1 218.3 288.0" fill="none" stroke="url(#bark)" stroke-width="7.3" stroke-linecap="round" opacity="0.6"/><path d="M 256.0 342.3 Q 276.6 322.7 289.3 303.1" fill="none" stroke="url(#bark)" stroke-width="7.5" stroke-linecap="round" opacity="0.6"/>
  <g><ellipse cx="248.4" cy="303.9" rx="5.6" ry="7.8" transform="rotate(189.4 248.4 303.9)" fill="url(#leaf-0)" opacity="0.96"/><ellipse cx="261.6" cy="289.9" rx="6.2" ry="8.7" transform="rotate(326.9 261.6 289.9)" fill="url(#leaf-1)" opacity="0.96"/><ellipse cx="261.5" cy="313.8" rx="6.9" ry="9.6" transform="rotate(464.4 261.5 313.8)" fill="url(#leaf-2)" opacity="0.96"/><ellipse cx="238.2" cy="293.1" rx="5.9" ry="8.2" transform="rotate(601.9 238.2 293.1)" fill="url(#leaf-0)" opacity="0.96"/><ellipse cx="280.8" cy="295.6" rx="6.6" ry="9.1" transform="rotate(739.4 280.8 295.6)" fill="url(#leaf-1)" opacity="0.96"/><ellipse cx="241.6" cy="319.5" rx="5.6" ry="7.8" transform="rotate(876.9 241.6 319.5)" fill="url(#leaf-2)" opacity="0.96"/><ellipse cx="251.7" cy="279.6" rx="6.2" ry="8.7" transform="rotate(1014.4 251.7 279.6)" fill="url(#leaf-0)" opacity="0.96"/><ellipse cx="280.4" cy="316.9" rx="6.9" ry="9.6" transform="rotate(1152.0 280.4 316.9)" fill="url(#leaf-1)" opacity="0.96"/><ellipse cx="220.9" cy="303.3" rx="5.9" ry="8.2" transform="rotate(1289.5 220.9 303.3)" fill="url(#leaf-2)" opacity="0.96"/><ellipse cx="278.6" cy="280.7" rx="6.6" ry="9.1" transform="rotate(1427.0 278.6 280.7)" fill="url(#leaf-0)" opacity="0.96"/><ellipse cx="255.7" cy="329.0" rx="5.6" ry="7.8" transform="rotate(1564.5 255.7 329.0)" fill="url(#leaf-1)" opacity="0.96"/><ellipse cx="229.3" cy="276.1" rx="6.2" ry="8.7" transform="rotate(1702.0 229.3 276.1)" fill="url(#leaf-2)" opacity="0.96"/><ellipse cx="297.5" cy="304.3" rx="6.9" ry="9.6" transform="rotate(1839.5 297.5 304.3)" fill="url(#leaf-0)" opacity="0.96"/><ellipse cx="225.7" cy="320.1" rx="5.9" ry="8.2" transform="rotate(1977.0 225.7 320.1)" fill="url(#leaf-1)" opacity="0.96"/><ellipse cx="263.4" cy="267.4" rx="6.6" ry="9.1" transform="rotate(2114.5 263.4 267.4)" fill="url(#leaf-2)" opacity="0.96"/><ellipse cx="281.1" cy="334.7" rx="5.6" ry="7.8" transform="rotate(2252.0 281.1 334.7)" fill="url(#leaf-0)" opacity="0.96"/><ellipse cx="211.8" cy="290.7" rx="6.2" ry="8.7" transform="rotate(2389.5 211.8 290.7)" fill="url(#leaf-1)" opacity="0.96"/><ellipse cx="293.9" cy="284.8" rx="6.9" ry="9.6" transform="rotate(2527.0 293.9 284.8)" fill="url(#leaf-2)" opacity="0.96"/><ellipse cx="239.0" cy="338.9" rx="5.9" ry="8.2" transform="rotate(2664.5 239.0 338.9)" fill="url(#leaf-0)" opacity="0.96"/><ellipse cx="236.1" cy="259.6" rx="6.6" ry="9.1" transform="rotate(2802.1 236.1 259.6)" fill="url(#leaf-1)" opacity="0.96"/><ellipse cx="300.0" cy="318.6" rx="5.6" ry="7.8" transform="rotate(2939.6 300.0 318.6)" fill="url(#leaf-2)" opacity="0.96"/><ellipse cx="210.3" cy="312.6" rx="6.2" ry="8.7" transform="rotate(3077.1 210.3 312.6)" fill="url(#leaf-0)" opacity="0.96"/><ellipse cx="284.3" cy="260.8" rx="6.9" ry="9.6" transform="rotate(3214.6 284.3 260.8)" fill="url(#leaf-1)" opacity="0.96"/><ellipse cx="267.8" cy="347.8" rx="5.9" ry="8.2" transform="rotate(3352.1 267.8 347.8)" fill="url(#leaf-2)" opacity="0.96"/><ellipse cx="214.3" cy="276.0" rx="6.6" ry="9.1" transform="rotate(3489.6 214.3 276.0)" fill="url(#leaf-0)" opacity="0.96"/><ellipse cx="309.6" cy="295.5" rx="5.6" ry="7.8" transform="rotate(3627.1 309.6 295.5)" fill="url(#leaf-1)" opacity="0.96"/><ellipse cx="215.6" cy="340.4" rx="6.2" ry="8.7" transform="rotate(3764.6 215.6 340.4)" fill="url(#leaf-2)" opacity="0.96"/><ellipse cx="254.0" cy="251.2" rx="6.9" ry="9.6" transform="rotate(3902.1 254.0 251.2)" fill="url(#leaf-0)" opacity="0.96"/><ellipse cx="294.0" cy="333.4" rx="5.9" ry="8.2" transform="rotate(4039.6 294.0 333.4)" fill="url(#leaf-1)" opacity="0.96"/><ellipse cx="195.2" cy="298.2" rx="6.6" ry="9.1" transform="rotate(4177.1 195.2 298.2)" fill="url(#leaf-2)" opacity="0.96"/><ellipse cx="307.6" cy="265.5" rx="5.6" ry="7.8" transform="rotate(4314.6 307.6 265.5)" fill="url(#leaf-0)" opacity="0.96"/><ellipse cx="247.4" cy="351.2" rx="6.2" ry="8.7" transform="rotate(4452.1 247.4 351.2)" fill="url(#leaf-1)" opacity="0.96"/><ellipse cx="222.9" cy="260.4" rx="6.9" ry="9.6" transform="rotate(4589.7 222.9 260.4)" fill="url(#leaf-2)" opacity="0.96"/><ellipse cx="322.0" cy="313.9" rx="5.9" ry="8.2" transform="rotate(4727.2 322.0 313.9)" fill="url(#leaf-0)" opacity="0.96"/><ellipse cx="195.4" cy="329.5" rx="6.6" ry="9.1" transform="rotate(4864.7 195.4 329.5)" fill="url(#leaf-1)" opacity="0.96"/><ellipse cx="275.3" cy="251.8" rx="5.6" ry="7.8" transform="rotate(5002.2 275.3 251.8)" fill="url(#leaf-2)" opacity="0.96"/><ellipse cx="282.5" cy="350.0" rx="6.2" ry="8.7" transform="rotate(5139.7 282.5 350.0)" fill="url(#leaf-0)" opacity="0.96"/></g>
</svg>