<?xml version="1.0" encoding="UTF-8"?>
<svg xmlns="http://www.w3.org/2000/svg" viewBox="0 0 512 512" role="img" aria-label="木の成長ステージ 50">
  <defs>
    <linearGradient id="bark" x1="0" y1="0" x2="1" y2="1"><stop stop-color="#8b5a2b"/><stop offset="0.52" stop-color="#6f401d"/><stop offset="1" stop-color="#3e2310"/></linearGradient>
    <radialGradient id="ground" cx="50%" cy="45%"><stop stop-color="#c7e6a6" stop-opacity="0.9"/><stop offset="1" stop-color="#9ec77a" stop-opacity="0.18"/></radialGradient>
    <linearGradient id="leaf-0" x1="0" y1="0" x2="1" y2="1"><stop stop-color="#d7f09e"/><stop offset="1" stop-color="#4e9f49"/></linearGradient>
    <linearGradient id="leaf-1" x1="0" y1="0" x2="1" y2="1"><stop stop-color="#bfe884"/><stop offset="1" stop-color="#3c8a43"/></linearGradient>
    <linearGradient id="leaf-2" x1="0" y1="0" x2="1" y2="1"><stop stop-color="#f2e986"/><stop offset="1" stop-color="#6bab43"/></linearGradient>
    <filter id="soft"><feGaussianBlur stdDeviation="3"/></filter>
  </defs>
  <ellipse cx="256" cy="445" rx="89.8" ry="19.1" fill="url(#ground)" opacity="0.5" filter="url(#soft)"/>
  <path d="M 256.0 427.0 Q 228.5 435.5 204.3 444.0" fill="none" stroke="url(#bark)" stroke-width="5.4" stroke-linecap="round" opacity="1.0"/><path d="M 256.0 429.0 Q 282.7 437.0 312.6 445.0" fill="none" stroke="url(#bark)" stroke-width="4.8" stroke-linecap="round" opacity="1.0"/><path d="M 256.0 432.0 Q 238.9 445.5 227.2 459.0" fill="none" stroke="url(#bark)" stroke-width="3.7" stroke-linecap="round" opacity="0.8"/>
  <path d="M 256 432 C 252.3 367.2, 260.6 294.3, 256 229.5" fill="none" stroke="url(#bark)" stroke-width="26.8" stroke-linecap="round"/>
  <path d="M 256.0 395.6 Q 240.9 378.2 218.9 360.8" fill="none" stroke="url(#bark)" stroke-width="11.2" stroke-linecap="round" opacity="0.9"/><path d="M 256.0 270.4 Q 291.8 246.5 318.1 222.7" fill="none" stroke="url(#bark)" stroke-width="8.4" stroke-linecap="round" opacity="0.9"/><path d="M 256.0 283.0 Q 231.9 261.6 199.3 240.2" fill="none" stroke="url(#bark)" stroke-width="8.7" stroke-linecap="round" opacity="0.9"/><path d="M 256.0 295.5 Q 285.4 276.7 307.3 257.8" fill="none" stroke="url(#bark)" stroke-width="9.0" stroke-linecap="round" opacity="0.9"/><path d="M 256.0 308.1 Q 238.1 282.7 210.1 257.3" fill="none" stroke="url(#bark)" stroke-width="9.3" stroke-linecap="round" opacity="0.8"/><path d="M 256.0 320.6 Q 280.8 297.8 296.5 274.9" fill="none" stroke="url(#bark)" stroke-width="9.5" stroke-linecap="round" opacity="0.8"/><path d="M 256.0 333.2 Q 227.3 312.8 190.5 292.4" fill="none" stroke="url(#bark)" stroke-width="9.8" stroke-linecap="round" opacity="0.8"/><path d="M 256.0 345.7 Q 289.6 327.9 316.1 310.0" fill="none" stroke="url(#bark)" stroke-width="10.1" stroke-linecap="round" opacity="0.8"/>
  <g><ellipse cx="248.6" cy="266.2" rx="6.4" ry="9.0" transform="rotate(244.0 248.6 266.2)" fill="url(#leaf-0)" opacity="0.96"/><ellipse cx="269.3" cy="267.3" rx="7.1" ry="9.9" transform="rotate(381.5 269.3 267.3)" fill="url(#leaf-1)" opacity="0.96"/><ellipse cx="244.7" cy="283.3" rx="7.7" ry="10.8" transform="rotate(519.0 244.7 283.3)" fill="url(#leaf-2)" opacity="0.96"/><ellipse cx="252.8" cy="249.4" rx="6.8" ry="9.4" transform="rotate(656.5 252.8 249.4)" fill="url(#leaf-0)" opacity="0.96"/><ellipse cx="274.7" cy="282.9" rx="7.4" ry="10.3" transform="rotate(794.0 274.7 282.9)" fill="url(#leaf-1)" opacity="0.96"/><ellipse cx="229.4" cy="270.7" rx="6.4" ry="9.0" transform="rotate(931.5 229.4 270.7)" fill="url(#leaf-2)" opacity="0.96"/><ellipse cx="279.4" cy="250.2" rx="7.1" ry="9.9" transform="rotate(1069.0 279.4 250.2)" fill="url(#leaf-0)" opacity="0.96"/><ellipse cx="254.5" cy="298.8" rx="7.7" ry="10.8" transform="rotate(1206.6 254.5 298.8)" fill="url(#leaf-1)" opacity="0.96"/><ellipse cx="235.1" cy="248.9" rx="6.8" ry="9.4" transform="rotate(1344.1 235.1 248.9)" fill="url(#leaf-2)" opacity="0.96"/><ellipse cx="292.3" cy="273.8" rx="7.4" ry="10.3" transform="rotate(1481.6 292.3 273.8)" fill="url(#leaf-0)" opacity="0.96"/><ellipse cx="221.0" cy="290.3" rx="6.4" ry="9.0" transform="rotate(1619.1 221.0 290.3)" fill="url(#leaf-1)" opacity="0.96"/><ellipse cx="264.9" cy="236.2" rx="7.1" ry="9.9" transform="rotate(1756.6 264.9 236.2)" fill="url(#leaf-2)" opacity="0.96"/><ellipse cx="275.5" cy="298.3" rx="7.7" ry="10.8" transform="rotate(1894.1 275.5 298.3)" fill="url(#leaf-0)" opacity="0.96"/><ellipse cx="212.4" cy="258.2" rx="6.8" ry="9.4" transform="rotate(2031.6 212.4 258.2)" fill="url(#leaf-1)" opacity="0.96"/><ellipse cx="301.2" cy="252.2" rx="7.4" ry="10.3" transform="rotate(2169.1 301.2 252.2)" fill="url(#leaf-2)" opacity="0.96"/><ellipse cx="238.5" cy="304.9" rx="6.4" ry="9.0" transform="rotate(2306.6 238.5 304.9)" fill="url(#leaf-0)" opacity="0.96"/><ellipse cx="240.3" cy="233.4" rx="7.1" ry="9.9" transform="rotate(2444.1 240.3 233.4)" fill="url(#leaf-1)" opacity="0.96"/><ellipse cx="303.9" cy="290.8" rx="7.7" ry="10.8" transform="rotate(2581.6 303.9 290.8)" fill="url(#leaf-2)" opacity="0.96"/><ellipse cx="203.2" cy="281.5" rx="6.8" ry="9.4" transform="rotate(2719.1 203.2 281.5)" fill="url(#leaf-0)" opacity="0.96"/><ellipse cx="282.6" cy="234.9" rx="7.4" ry="10.3" transform="rotate(2856.7 282.6 234.9)" fill="url(#leaf-1)" opacity="0.96"/><ellipse cx="265.2" cy="314.0" rx="6.4" ry="9.0" transform="rotate(2994.2 265.2 314.0)" fill="url(#leaf-2)" opacity="0.96"/><ellipse cx="207.7" cy="238.5" rx="7.1" ry="9.9" transform="rotate(3131.7 207.7 238.5)" fill="url(#leaf-0)" opacity="0.96"/><ellipse cx="313.3" cy="265.7" rx="7.7" ry="10.8" transform="rotate(3269.2 313.3 265.7)" fill="url(#leaf-1)" opacity="0.96"/><ellipse cx="219.6" cy="302.9" rx="6.8" ry="9.4" transform="rotate(3406.7 219.6 302.9)" fill="url(#leaf-2)" opacity="0.96"/><ellipse cx="256.2" cy="218.2" rx="7.4" ry="10.3" transform="rotate(3544.2 256.2 218.2)" fill="url(#leaf-0)" opacity="0.96"/><ellipse cx="300.5" cy="310.8" rx="6.4" ry="9.0" transform="rotate(3681.7 300.5 310.8)" fill="url(#leaf-1)" opacity="0.96"/><ellipse cx="196.7" cy="265.2" rx="7.1" ry="9.9" transform="rotate(3819.2 196.7 265.2)" fill="url(#leaf-2)" opacity="0.96"/><ellipse cx="303.2" cy="239.6" rx="7.7" ry="10.8" transform="rotate(3956.7 303.2 239.6)" fill="url(#leaf-0)" opacity="0.96"/><ellipse cx="243.8" cy="326.6" rx="6.8" ry="9.4" transform="rotate(4094.2 243.8 326.6)" fill="url(#leaf-1)" opacity="0.96"/><ellipse cx="219.1" cy="220.8" rx="7.4" ry="10.3" transform="rotate(4231.7 219.1 220.8)" fill="url(#leaf-2)" opacity="0.96"/><ellipse cx="315.6" cy="283.4" rx="6.4" ry="9.0" transform="rotate(4369.2 315.6 283.4)" fill="url(#leaf-0)" opacity="0.96"/><ellipse cx="197.1" cy="295.2" rx="7.1" ry="9.9" transform="rotate(4506.7 197.1 295.2)" fill="url(#leaf-1)" opacity="0.96"/><ellipse cx="282.0" cy="210.7" rx="7.7" ry="10.8" transform="rotate(4644.3 282.0 210.7)" fill="url(#leaf-2)" opacity="0.96"/><ellipse cx="282.7" cy="324.5" rx="6.8" ry="9.4" transform="rotate(4781.8 282.7 324.5)" fill="url(#leaf-0)" opacity="0.96"/><ellipse cx="197.2" cy="246.5" rx="7.4" ry="10.3" transform="rotate(4919.3 197.2 246.5)" fill="url(#leaf-1)" opacity="0.96"/><ellipse cx="326.4" cy="251.5" rx="6.4" ry="9.0" transform="rotate(5056.8 326.4 251.5)" fill="url(#leaf-2)" opacity="0.96"/><ellipse cx="216.1" cy="327.1" rx="7.1" ry="9.9" transform="rotate(5194.3 216.1 327.1)" fill="url(#leaf-0)" opacity="0.96"/><ellipse cx="241.0" cy="211.5" rx="7.7" ry="10.8" transform="rotate(5331.8 241.0 211.5)" fill="url(#leaf-1)" opacity="0.96"/><ellipse cx="313.2" cy="303.7" rx="6.8" ry="9.4" transform="rotate(5469.3 313.2 303.7)" fill="url(#leaf-2)" opacity="0.96"/><ellipse cx="175.7" cy="278.3" rx="7.4" ry="10.3" transform="rotate(5606.8 175.7 278.3)" fill="url(#leaf-0)" opacity="0.96"/><ellipse cx="308.5" cy="217.8" rx="6.4" ry="9.0" transform="rotate(5744.3 308.5 217.8)" fill="url(#leaf-1)" opacity="0.96"/><ellipse cx="258.7" cy="330.2" rx="7.1" ry="9.9" transform="rotate(5881.8 258.7 330.2)" fill="url(#leaf-2)" opacity="0.96"/><ellipse cx="202.1" cy="224.0" rx="7.7" ry="10.8" transform="rotate(6019.3 202.1 224.0)" fill="url(#leaf-0)" opacity="0.96"/><ellipse cx="342.7" cy="273.4" rx="6.8" ry="9.4" transform="rotate(6156.8 342.7 273.4)" fill="url(#leaf-1)" opacity="0.96"/><ellipse cx="193.3" cy="313.4" rx="7.4" ry="10.3" transform="rotate(6294.4 193.3 313.4)" fill="url(#leaf-2)" opacity="0.96"/><ellipse cx="266.2" cy="207.7" rx="6.4" ry="9.0" transform="rotate(6431.9 266.2 207.7)" fill="url(#leaf-0)" opacity="0.96"/><ellipse cx="303.8" cy="327.8" rx="7.1" ry="9.9" transform="rotate(6569.4 303.8 327.8)" fill="url(#leaf-1)" opacity="0.96"/><ellipse cx="167.8" cy="252.9" rx="7.7" ry="10.8" transform="rotate(6706.9 167.8 252.9)" fill="url(#leaf-2)" opacity="0.96"/><ellipse cx="326.5" cy="236.1" rx="6.8" ry="9.4" transform="rotate(6844.4 326.5 236.1)" fill="url(#leaf-0)" opacity="0.96"/></g>
</svg>