<?xml version="1.0" encoding="UTF-8"?>
<svg xmlns="http://www.w3.org/2000/svg" viewBox="0 0 512 512" role="img" aria-label="木の成長ステージ 35">
  <defs>
    <linearGradient id="bark" x1="0" y1="0" x2="1" y2="1"><stop stop-color="#8b5a2b"/><stop offset="0.52" stop-color="#6f401d"/><stop offset="1" stop-color="#3e2310"/></linearGradient>
    <radialGradient id="ground" cx="50%" cy="45%"><stop stop-color="#c7e6a6" stop-opacity="0.9"/><stop offset="1" stop-color="#9ec77a" stop-opacity="0.18"/></radialGradient>
    <linearGradient id="leaf-0" x1="0" y1="0" x2="1" y2="1"><stop stop-color="#d7f09e"/><stop offset="1" stop-color="#4e9f49"/></linearGradient>
    <linearGradient id="leaf-1" x1="0" y1="0" x2="1" y2="1"><stop stop-color="#bfe884"/><stop offset="1" stop-color="#3c8a43"/></linearGradient>
    <linearGradient id="leaf-2" x1="0" y1="0" x2="1" y2="1"><stop stop-color="#f2e986"/><stop offset="1" stop-color="#6bab43"/></linearGradient>
    <filter id="soft"><feGaussianBlur stdDeviation="3"/></filter>
  </defs>
  <ellipse cx="256" cy="445" rx="76.5" ry="16.3" fill="url(#ground)" opacity="0.4" filter="url(#soft)"/>
  <path d="M 256.0 427.0 Q 233.6 435.5 214.6 444.0" fill="none" stroke="url(#bark)" stroke-width="4.0" stroke-linecap="round" opacity="1.0"/><path d="M 256.0 429.0 Q 277.1 437.0 301.4 445.0" fill="none" stroke="url(#bark)" stroke-width="3.6" stroke-linecap="round" opacity="0.9"/><path d="M 256.0 432.0 Q 241.8 445.5 232.9 459.0" fill="none" stroke="url(#bark)" stroke-width="2.8" stroke-linecap="round" opacity="0.7"/>
  <path d="M 256 432 C 253.2 381.8, 259.4 325.2, 256 275.0" fill="none" stroke="url(#bark)" stroke-width="20.1" stroke-linecap="round"/>
  <path d="M 256.0 403.7 Q 244.0 390.1 226.5 376.6" fill="none" stroke="url(#bark)" stroke-width="8.4" stroke-linecap="round" opacity="0.6"/><path d="M 256.0 306.7 Q 284.7 286.6 305.3 266.5" fill="none" stroke="url(#bark)" stroke-width="6.3" stroke-linecap="round" opacity="0.6"/><path d="M 256.0 316.4 Q 237.0 298.8 211.0 281.3" fill="none" stroke="url(#bark)" stroke-width="6.5" stroke-linecap="round" opacity="0.6"/><path d="M 256.0 326.2 Q 279.4 311.1 296.7 296.0" fill="none" stroke="url(#bark)" stroke-width="6.7" stroke-linecap="round" opacity="0.6"/><path d="M 256.0 335.9 Q 242.1 314.3 219.6 292.7" fill="none" stroke="url(#bark)" stroke-width="7.0" stroke-linecap="round" opacity="0.6"/><path d="M 256.0 345.6 Q 275.9 326.5 288.2 307.5" fill="none" stroke="url(#bark)" stroke-width="7.2" stroke-linecap="round" opacity="0.6"/>
  <g><ellipse cx="249.3" cy="309.4" rx="5.5" ry="7.6" transform="rotate(181.0 249.3 309.4)" fill="url(#leaf-0)" opacity="0.96"/><ellipse cx="259.6" cy="294.0" rx="6.1" ry="8.5" transform="rotate(318.5 259.6 294.0)" fill="url(#leaf-1)" opacity="0.96"/><ellipse cx="263.7" cy="317.9" rx="6.8" ry="9.4" transform="rotate(456.0 263.7 317.9)" fill="url(#leaf-2)" opacity="0.96"/><ellipse cx="237.8" cy="300.4" rx="5.8" ry="8.0" transform="rotate(593.5 237.8 300.4)" fill="url(#leaf-0)" opacity="0.96"/><ellipse cx="279.0" cy="297.6" rx="6.4" ry="8.9" transform="rotate(731.0 279.0 297.6)" fill="url(#leaf-1)" opacity="0.96"/><ellipse cx="244.8" cy="326.2" rx="5.5" ry="7.6" transform="rotate(868.5 244.8 326.2)" fill="url(#leaf-2)" opacity="0.96"/><ellipse cx="248.1" cy="285.2" rx="6.1" ry="8.5" transform="rotate(1006.0 248.1 285.2)" fill="url(#leaf-0)" opacity="0.96"/><ellipse cx="281.7" cy="318.0" rx="6.8" ry="9.4" transform="rotate(1143.6 281.7 318.0)" fill="url(#leaf-1)" opacity="0.96"/><ellipse cx="222.0" cy="312.3" rx="5.8" ry="8.0" transform="rotate(1281.1 222.0 312.3)" fill="url(#leaf-2)" opacity="0.96"/><ellipse cx="275.2" cy="282.5" rx="6.4" ry="8.9" transform="rotate(1418.6 275.2 282.5)" fill="url(#leaf-0)" opacity="0.96"/><ellipse cx="260.5" cy="332.8" rx="5.5" ry="7.6" transform="rotate(1556.1 260.5 332.8)" fill="url(#leaf-1)" opacity="0.96"/><ellipse cx="226.4" cy="285.3" rx="6.1" ry="8.5" transform="rotate(1693.6 226.4 285.3)" fill="url(#leaf-2)" opacity="0.96"/><ellipse cx="297.9" cy="304.0" rx="6.8" ry="9.4" transform="rotate(1831.1 297.9 304.0)" fill="url(#leaf-0)" opacity="0.96"/><ellipse cx="229.0" cy="328.7" rx="5.8" ry="8.0" transform="rotate(1968.6 229.0 328.7)" fill="url(#leaf-1)" opacity="0.96"/><ellipse cx="257.4" cy="273.0" rx="6.4" ry="8.9" transform="rotate(2106.1 257.4 273.0)" fill="url(#leaf-2)" opacity="0.96"/><ellipse cx="286.0" cy="335.2" rx="5.5" ry="7.6" transform="rotate(2243.6 286.0 335.2)" fill="url(#leaf-0)" opacity="0.96"/><ellipse cx="209.6" cy="300.9" rx="6.1" ry="8.5" transform="rotate(2381.1 209.6 300.9)" fill="url(#leaf-1)" opacity="0.96"/><ellipse cx="290.5" cy="285.2" rx="6.8" ry="9.4" transform="rotate(2518.6 290.5 285.2)" fill="url(#leaf-2)" opacity="0.96"/><ellipse cx="246.3" cy="343.6" rx="5.8" ry="8.0" transform="rotate(2656.1 246.3 343.6)" fill="url(#leaf-0)" opacity="0.96"/><ellipse cx="229.3" cy="267.6" rx="6.4" ry="8.9" transform="rotate(2793.7 229.3 267.6)" fill="url(#leaf-1)" opacity="0.96"/><ellipse cx="303.6" cy="318.1" rx="5.5" ry="7.6" transform="rotate(2931.2 303.6 318.1)" fill="url(#leaf-2)" opacity="0.96"/><ellipse cx="213.8" cy="322.5" rx="6.1" ry="8.5" transform="rotate(3068.7 213.8 322.5)" fill="url(#leaf-0)" opacity="0.96"/><ellipse cx="276.2" cy="264.3" rx="6.8" ry="9.4" transform="rotate(3206.2 276.2 264.3)" fill="url(#leaf-1)" opacity="0.96"/><ellipse cx="276.0" cy="350.9" rx="5.8" ry="8.0" transform="rotate(3343.7 276.0 350.9)" fill="url(#leaf-2)" opacity="0.96"/><ellipse cx="209.8" cy="285.9" rx="6.4" ry="8.9" transform="rotate(3481.2 209.8 285.9)" fill="url(#leaf-0)" opacity="0.96"/><ellipse cx="306.1" cy="294.3" rx="5.5" ry="7.6" transform="rotate(3618.7 306.1 294.3)" fill="url(#leaf-1)" opacity="0.96"/><ellipse cx="223.8" cy="348.5" rx="6.1" ry="8.5" transform="rotate(3756.2 223.8 348.5)" fill="url(#leaf-2)" opacity="0.96"/><ellipse cx="245.2" cy="256.0" rx="6.8" ry="9.4" transform="rotate(3893.7 245.2 256.0)" fill="url(#leaf-0)" opacity="0.96"/><ellipse cx="299.1" cy="333.2" rx="5.8" ry="8.0" transform="rotate(4031.2 299.1 333.2)" fill="url(#leaf-1)" opacity="0.96"/><ellipse cx="198.1" cy="310.2" rx="6.4" ry="8.9" transform="rotate(4168.7 198.1 310.2)" fill="url(#leaf-2)" opacity="0.96"/><ellipse cx="300.4" cy="264.9" rx="5.5" ry="7.6" transform="rotate(4306.2 300.4 264.9)" fill="url(#leaf-0)" opacity="0.96"/><ellipse cx="256.3" cy="357.6" rx="6.1" ry="8.5" transform="rotate(4443.7 256.3 357.6)" fill="url(#leaf-1)" opacity="0.96"/><ellipse cx="217.1" cy="270.5" rx="6.8" ry="9.4" transform="rotate(4581.3 217.1 270.5)" fill="url(#leaf-2)" opacity="0.96"/><ellipse cx="320.8" cy="310.3" rx="5.8" ry="8.0" transform="rotate(4718.8 320.8 310.3)" fill="url(#leaf-0)" opacity="0.96"/><ellipse cx="200.8" cy="341.5" rx="6.4" ry="8.9" transform="rotate(4856.3 200.8 341.5)" fill="url(#leaf-1)" opacity="0.96"/></g>
</svg>