<?xml version="1.0" encoding="UTF-8"?>
<svg xmlns="http://www.w3.org/2000/svg" viewBox="0 0 512 512" role="img" aria-label="木の成長ステージ 44">
  <defs>
    <linearGradient id="bark" x1="0" y1="0" x2="1" y2="1"><stop stop-color="#8b5a2b"/><stop offset="0.52" stop-color="#6f401d"/><stop offset="1" stop-color="#3e2310"/></linearGradient>
    <radialGradient id="ground" cx="50%" cy="45%"><stop stop-color="#c7e6a6" stop-opacity="0.9"/><stop offset="1" stop-color="#9ec77a" stop-opacity="0.18"/></radialGradient>
    <linearGradient id="leaf-0" x1="0" y1="0" x2="1" y2="1"><stop stop-color="#d7f09e"/><stop offset="1" stop-color="#4e9f49"/></linearGradient>
    <linearGradient id="leaf-1" x1="0" y1="0" x2="1" y2="1"><stop stop-color="#bfe884"/><stop offset="1" stop-color="#3c8a43"/></linearGradient>
    <linearGradient id="leaf-2" x1="0" y1="0" x2="1" y2="1"><stop stop-color="#f2e986"/><stop offset="1" stop-color="#6bab43"/></linearGradient>
    <filter id="soft"><feGaussianBlur stdDeviation="3"/></filter>
  </defs>
  <ellipse cx="256" cy="445" rx="84.5" ry="18.0" fill="url(#ground)" opacity="0.5" filter="url(#soft)"/>
  <path d="M 256.0 427.0 Q 230.5 435.5 208.5 444.0" fill="none" stroke="url(#bark)" stroke-width="4.8" stroke-linecap="round" opacity="1.0"/><path d="M 256.0 429.0 Q 280.5 437.0 308.1 445.0" fill="none" stroke="url(#bark)" stroke-width="4.3" stroke-linecap="round" opacity="1.0"/><path d="M 256.0 432.0 Q 240.0 445.5 229.5 459.0" fill="none" stroke="url(#bark)" stroke-width="3.4" stroke-linecap="round" opacity="0.8"/>
  <path d="M 256 432 C 252.6 373.0, 260.1 306.7, 256 247.7" fill="none" stroke="url(#bark)" stroke-width="24.1" stroke-linecap="round"/>
  <path d="M 256.0 398.8 Q 242.1 383.0 221.9 367.1" fill="none" stroke="url(#bark)" stroke-width="10.1" stroke-linecap="round" opacity="0.8"/><path d="M 256.0 284.9 Q 289.0 262.6 313.0 240.2" fill="none" stroke="url(#bark)" stroke-width="7.6" stroke-linecap="round" opacity="0.8"/><path d="M 256.0 296.4 Q 233.9 276.5 204.0 256.6" fill="none" stroke="url(#bark)" stroke-width="7.8" stroke-linecap="round" opacity="0.8"/><path d="M 256.0 307.8 Q 283.0 290.4 303.1 273.1" fill="none" stroke="url(#bark)" stroke-width="8.1" stroke-linecap="round" opacity="0.7"/><path d="M 256.0 319.2 Q 239.7 295.3 213.9 271.5" fill="none" stroke="url(#bark)" stroke-width="8.3" stroke-linecap="round" opacity="0.7"/><path d="M 256.0 330.6 Q 278.9 309.3 293.2 287.9" fill="none" stroke="url(#bark)" stroke-width="8.6" stroke-linecap="round" opacity="0.7"/><path d="M 256.0 342.1 Q 229.7 323.2 195.9 304.3" fill="none" stroke="url(#bark)" stroke-width="8.8" stroke-linecap="round" opacity="0.7"/>
  <g><ellipse cx="247.1" cy="283.5" rx="6.1" ry="8.4" transform="rotate(218.8 247.1 283.5)" fill="url(#leaf-0)" opacity="0.96"/><ellipse cx="266.8" cy="277.2" rx="6.7" ry="9.3" transform="rotate(356.3 266.8 277.2)" fill="url(#leaf-1)" opacity="0.96"/><ellipse cx="253.0" cy="298.5" rx="7.4" ry="10.2" transform="rotate(493.8 253.0 298.5)" fill="url(#leaf-2)" opacity="0.96"/><ellipse cx="243.3" cy="267.6" rx="6.4" ry="8.9" transform="rotate(631.3 243.3 267.6)" fill="url(#leaf-0)" opacity="0.96"/><ellipse cx="281.1" cy="289.7" rx="7.0" ry="9.8" transform="rotate(768.8 281.1 289.7)" fill="url(#leaf-1)" opacity="0.96"/><ellipse cx="233.6" cy="294.0" rx="6.1" ry="8.4" transform="rotate(906.3 233.6 294.0)" fill="url(#leaf-2)" opacity="0.96"/><ellipse cx="266.0" cy="261.0" rx="6.7" ry="9.3" transform="rotate(1043.8 266.0 261.0)" fill="url(#leaf-0)" opacity="0.96"/><ellipse cx="269.5" cy="311.2" rx="7.4" ry="10.2" transform="rotate(1181.4 269.5 311.2)" fill="url(#leaf-1)" opacity="0.96"/><ellipse cx="225.1" cy="272.2" rx="6.4" ry="8.9" transform="rotate(1318.9 225.1 272.2)" fill="url(#leaf-2)" opacity="0.96"/><ellipse cx="287.5" cy="275.8" rx="7.0" ry="9.8" transform="rotate(1456.4 287.5 275.8)" fill="url(#leaf-0)" opacity="0.96"/><ellipse cx="236.5" cy="312.6" rx="6.1" ry="8.4" transform="rotate(1593.9 236.5 312.6)" fill="url(#leaf-1)" opacity="0.96"/><ellipse cx="246.6" cy="249.1" rx="6.7" ry="9.3" transform="rotate(1731.4 246.6 249.1)" fill="url(#leaf-2)" opacity="0.96"/><ellipse cx="288.4" cy="303.1" rx="7.4" ry="10.2" transform="rotate(1868.9 288.4 303.1)" fill="url(#leaf-0)" opacity="0.96"/><ellipse cx="216.0" cy="288.6" rx="6.4" ry="8.9" transform="rotate(2006.4 216.0 288.6)" fill="url(#leaf-1)" opacity="0.96"/><ellipse cx="286.6" cy="253.5" rx="7.0" ry="9.8" transform="rotate(2143.9 286.6 253.5)" fill="url(#leaf-2)" opacity="0.96"/><ellipse cx="258.2" cy="324.6" rx="6.1" ry="8.4" transform="rotate(2281.4 258.2 324.6)" fill="url(#leaf-0)" opacity="0.96"/><ellipse cx="224.9" cy="258.2" rx="6.7" ry="9.3" transform="rotate(2418.9 224.9 258.2)" fill="url(#leaf-1)" opacity="0.96"/><ellipse cx="303.9" cy="285.9" rx="7.4" ry="10.2" transform="rotate(2556.4 303.9 285.9)" fill="url(#leaf-2)" opacity="0.96"/><ellipse cx="214.0" cy="313.7" rx="6.4" ry="8.9" transform="rotate(2693.9 214.0 313.7)" fill="url(#leaf-0)" opacity="0.96"/><ellipse cx="262.7" cy="241.1" rx="7.0" ry="9.8" transform="rotate(2831.5 262.7 241.1)" fill="url(#leaf-1)" opacity="0.96"/><ellipse cx="283.9" cy="317.5" rx="6.1" ry="8.4" transform="rotate(2969.0 283.9 317.5)" fill="url(#leaf-2)" opacity="0.96"/><ellipse cx="201.5" cy="274.1" rx="6.7" ry="9.3" transform="rotate(3106.5 201.5 274.1)" fill="url(#leaf-0)" opacity="0.96"/><ellipse cx="308.0" cy="259.0" rx="7.4" ry="10.2" transform="rotate(3244.0 308.0 259.0)" fill="url(#leaf-1)" opacity="0.96"/><ellipse cx="239.7" cy="327.5" rx="6.4" ry="8.9" transform="rotate(3381.5 239.7 327.5)" fill="url(#leaf-2)" opacity="0.96"/><ellipse cx="233.1" cy="243.0" rx="7.0" ry="9.8" transform="rotate(3519.0 233.1 243.0)" fill="url(#leaf-0)" opacity="0.96"/><ellipse cx="314.3" cy="304.4" rx="6.1" ry="8.4" transform="rotate(3656.5 314.3 304.4)" fill="url(#leaf-1)" opacity="0.96"/><ellipse cx="196.5" cy="302.3" rx="6.7" ry="9.3" transform="rotate(3794.0 196.5 302.3)" fill="url(#leaf-2)" opacity="0.96"/><ellipse cx="282.2" cy="242.0" rx="7.4" ry="10.2" transform="rotate(3931.5 282.2 242.0)" fill="url(#leaf-0)" opacity="0.96"/><ellipse cx="271.8" cy="333.6" rx="6.4" ry="8.9" transform="rotate(4069.0 271.8 333.6)" fill="url(#leaf-1)" opacity="0.96"/><ellipse cx="197.6" cy="253.0" rx="7.0" ry="9.8" transform="rotate(4206.5 197.6 253.0)" fill="url(#leaf-2)" opacity="0.96"/><ellipse cx="320.0" cy="274.7" rx="6.1" ry="8.4" transform="rotate(4344.0 320.0 274.7)" fill="url(#leaf-0)" opacity="0.96"/><ellipse cx="219.3" cy="324.2" rx="6.7" ry="9.3" transform="rotate(4481.5 219.3 324.2)" fill="url(#leaf-1)" opacity="0.96"/><ellipse cx="250.1" cy="227.1" rx="7.4" ry="10.2" transform="rotate(4619.1 250.1 227.1)" fill="url(#leaf-2)" opacity="0.96"/><ellipse cx="310.1" cy="325.8" rx="6.4" ry="8.9" transform="rotate(4756.6 310.1 325.8)" fill="url(#leaf-0)" opacity="0.96"/><ellipse cx="190.1" cy="284.1" rx="7.0" ry="9.8" transform="rotate(4894.1 190.1 284.1)" fill="url(#leaf-1)" opacity="0.96"/><ellipse cx="304.1" cy="247.3" rx="6.1" ry="8.4" transform="rotate(5031.6 304.1 247.3)" fill="url(#leaf-2)" opacity="0.96"/><ellipse cx="249.3" cy="347.1" rx="6.7" ry="9.3" transform="rotate(5169.1 249.3 347.1)" fill="url(#leaf-0)" opacity="0.96"/><ellipse cx="210.1" cy="233.9" rx="7.4" ry="10.2" transform="rotate(5306.6 210.1 233.9)" fill="url(#leaf-1)" opacity="0.96"/><ellipse cx="322.2" cy="294.0" rx="6.4" ry="8.9" transform="rotate(5444.1 322.2 294.0)" fill="url(#leaf-2)" opacity="0.96"/><ellipse cx="195.5" cy="316.3" rx="7.0" ry="9.8" transform="rotate(5581.6 195.5 316.3)" fill="url(#leaf-0)" opacity="0.96"/><ellipse cx="277.1" cy="218.6" rx="6.1" ry="8.4" transform="rotate(5719.1 277.1 218.6)" fill="url(#leaf-1)" opacity="0.96"/><ellipse cx="291.0" cy="340.8" rx="6.7" ry="9.3" transform="rotate(5856.6 291.0 340.8)" fill="url(#leaf-2)" opacity="0.96"/><ellipse cx="190.4" cy="264.0" rx="7.4" ry="10.2" transform="rotate(5994.1 190.4 264.0)" fill="url(#leaf-0)" opacity="0.96"/></g>
</svg>