<?xml version="1.0" encoding="UTF-8"?>
<svg xmlns="http://www.w3.org/2000/svg" viewBox="0 0 512 512" role="img" aria-label="木の成長ステージ 81">
  <defs>
    <linearGradient id="bark" x1="0" y1="0" x2="1" y2="1"><stop stop-color="#8b5a2b"/><stop offset="0.52" stop-color="#6f401d"/><stop offset="1" stop-color="#3e2310"/></linearGradient>
    <radialGradient id="ground" cx="50%" cy="45%"><stop stop-color="#c7e6a6" stop-opacity="0.9"/><stop offset="1" stop-color="#9ec77a" stop-opacity="0.18"/></radialGradient>
    <linearGradient id="leaf-0" x1="0" y1="0" x2="1" y2="1"><stop stop-color="#d7f09e"/><stop offset="1" stop-color="#4e9f49"/></linearGradient>
    <linearGradient id="leaf-1" x1="0" y1="0" x2="1" y2="1"><stop stop-color="#bfe884"/><stop offset="1" stop-color="#3c8a43"/></linearGradient>
    <linearGradient id="leaf-2" x1="0" y1="0" x2="1" y2="1"><stop stop-color="#f2e986"/><stop offset="1" stop-color="#6bab43"/></linearGradient>
    <filter id="soft"><feGaussianBlur stdDeviation="3"/></filter>
  </defs>
  <ellipse cx="256" cy="445" rx="117.3" ry="25.0" fill="url(#ground)" opacity="0.6" filter="url(#soft)"/>
  <path d="M 256.0 427.0 Q 217.8 435.5 183.1 444.0" fill="none" stroke="url(#bark)" stroke-width="8.1" stroke-linecap="round" opacity="1.0"/><path d="M 256.0 429.0 Q 294.3 437.0 335.8 445.0" fill="none" stroke="url(#bark)" stroke-width="7.3" stroke-linecap="round" opacity="1.0"/><path d="M 256.0 432.0 Q 232.9 445.5 215.3 459.0" fill="none" stroke="url(#bark)" stroke-width="5.7" stroke-linecap="round" opacity="0.8"/>
  <path d="M 256 432 C 250.3 337.1, 262.9 230.4, 256 135.6" fill="none" stroke="url(#bark)" stroke-width="40.6" stroke-linecap="round"/>
  <path d="M 256.0 378.6 Q 234.5 353.4 203.0 328.2" fill="none" stroke="url(#bark)" stroke-width="17.0" stroke-linecap="round" opacity="1.0"/><path d="M 256.0 195.5 Q 306.7 163.8 344.6 132.0" fill="none" stroke="url(#bark)" stroke-width="12.7" stroke-linecap="round" opacity="1.0"/><path d="M 256.0 213.8 Q 221.4 184.6 175.1 155.4" fill="none" stroke="url(#bark)" stroke-width="13.2" stroke-linecap="round" opacity="1.0"/><path d="M 256.0 232.2 Q 298.0 205.5 329.2 178.8" fill="none" stroke="url(#bark)" stroke-width="13.6" stroke-linecap="round" opacity="1.0"/><path d="M 256.0 250.6 Q 229.9 217.4 190.5 184.2" fill="none" stroke="url(#bark)" stroke-width="14.0" stroke-linecap="round" opacity="1.0"/><path d="M 256.0 269.0 Q 291.0 238.3 313.8 207.6" fill="none" stroke="url(#bark)" stroke-width="14.5" stroke-linecap="round" opacity="1.0"/><path d="M 256.0 287.3 Q 214.9 259.1 162.5 230.9" fill="none" stroke="url(#bark)" stroke-width="14.9" stroke-linecap="round" opacity="1.0"/><path d="M 256.0 305.7 Q 304.0 280.0 341.7 254.3" fill="none" stroke="url(#bark)" stroke-width="15.3" stroke-linecap="round" opacity="1.0"/><path d="M 256.0 324.1 Q 223.4 291.9 178.0 259.7" fill="none" stroke="url(#bark)" stroke-width="15.7" stroke-linecap="round" opacity="1.0"/><path d="M 256.0 342.5 Q 297.1 312.8 326.3 283.1" fill="none" stroke="url(#bark)" stroke-width="16.2" stroke-linecap="round" opacity="1.0"/><path d="M 256.0 360.9 Q 230.1 333.7 193.4 306.5" fill="none" stroke="url(#bark)" stroke-width="16.6" stroke-linecap="round" opacity="1.0"/><path d="M 256.0 177.7 Q 290.2 144.0 310.9 110.3" fill="none" stroke="url(#bark)" stroke-width="12.3" stroke-linecap="round" opacity="1.0"/><path d="M 256.0 196.0 Q 217.0 164.8 165.4 133.6" fill="none" stroke="url(#bark)" stroke-width="12.8" stroke-linecap="round" opacity="1.0"/><path d="M 256.0 214.4 Q 303.2 185.7 338.9 157.0" fill="none" stroke="url(#bark)" stroke-width="13.2" stroke-linecap="round" opacity="1.0"/>
  <g><ellipse cx="265.7" cy="192.4" rx="8.5" ry="11.8" transform="rotate(374.2 265.7 192.4)" fill="url(#leaf-0)" opacity="0.96"/><ellipse cx="248.6" cy="207.2" rx="9.1" ry="12.7" transform="rotate(511.7 248.6 207.2)" fill="url(#leaf-1)" opacity="0.96"/><ellipse cx="250.3" cy="177.1" rx="9.8" ry="13.6" transform="rotate(649.2 250.3 177.1)" fill="url(#leaf-2)" opacity="0.96"/><ellipse cx="280.4" cy="208.5" rx="8.8" ry="12.2" transform="rotate(786.7 280.4 208.5)" fill="url(#leaf-0)" opacity="0.96"/><ellipse cx="226.8" cy="199.6" rx="9.4" ry="13.1" transform="rotate(924.2 226.8 199.6)" fill="url(#leaf-1)" opacity="0.96"/><ellipse cx="274.8" cy="174.9" rx="8.5" ry="11.8" transform="rotate(1061.7 274.8 174.9)" fill="url(#leaf-2)" opacity="0.96"/><ellipse cx="259.1" cy="227.1" rx="9.1" ry="12.7" transform="rotate(1199.2 259.1 227.1)" fill="url(#leaf-0)" opacity="0.96"/><ellipse cx="225.4" cy="171.6" rx="9.8" ry="13.6" transform="rotate(1336.8 225.4 171.6)" fill="url(#leaf-1)" opacity="0.96"/><ellipse cx="295.0" cy="195.5" rx="8.8" ry="12.2" transform="rotate(1474.3 295.0 195.5)" fill="url(#leaf-2)" opacity="0.96"/><ellipse cx="225.2" cy="218.9" rx="9.4" ry="13.1" transform="rotate(1611.8 225.2 218.9)" fill="url(#leaf-0)" opacity="0.96"/><ellipse cx="260.6" cy="153.8" rx="8.5" ry="11.8" transform="rotate(1749.3 260.6 153.8)" fill="url(#leaf-1)" opacity="0.96"/><ellipse cx="286.1" cy="228.7" rx="9.1" ry="12.7" transform="rotate(1886.8 286.1 228.7)" fill="url(#leaf-2)" opacity="0.96"/><ellipse cx="210.7" cy="188.4" rx="9.8" ry="13.6" transform="rotate(2024.3 210.7 188.4)" fill="url(#leaf-0)" opacity="0.96"/><ellipse cx="300.0" cy="172.1" rx="8.8" ry="12.2" transform="rotate(2161.8 300.0 172.1)" fill="url(#leaf-1)" opacity="0.96"/><ellipse cx="240.4" cy="243.2" rx="9.4" ry="13.1" transform="rotate(2299.3 240.4 243.2)" fill="url(#leaf-2)" opacity="0.96"/><ellipse cx="230.8" cy="154.1" rx="8.5" ry="11.8" transform="rotate(2436.8 230.8 154.1)" fill="url(#leaf-0)" opacity="0.96"/><ellipse cx="305.8" cy="210.9" rx="9.1" ry="12.7" transform="rotate(2574.3 305.8 210.9)" fill="url(#leaf-1)" opacity="0.96"/><ellipse cx="198.6" cy="215.0" rx="9.8" ry="13.6" transform="rotate(2711.8 198.6 215.0)" fill="url(#leaf-2)" opacity="0.96"/><ellipse cx="284.1" cy="145.5" rx="8.8" ry="12.2" transform="rotate(2849.3 284.1 145.5)" fill="url(#leaf-0)" opacity="0.96"/><ellipse cx="273.4" cy="242.9" rx="9.4" ry="13.1" transform="rotate(2986.9 273.4 242.9)" fill="url(#leaf-1)" opacity="0.96"/><ellipse cx="203.4" cy="169.4" rx="8.5" ry="11.8" transform="rotate(3124.4 203.4 169.4)" fill="url(#leaf-2)" opacity="0.96"/><ellipse cx="325.4" cy="182.8" rx="9.1" ry="12.7" transform="rotate(3261.9 325.4 182.8)" fill="url(#leaf-0)" opacity="0.96"/><ellipse cx="215.6" cy="243.2" rx="9.8" ry="13.6" transform="rotate(3399.4 215.6 243.2)" fill="url(#leaf-1)" opacity="0.96"/><ellipse cx="248.2" cy="142.6" rx="8.8" ry="12.2" transform="rotate(3536.9 248.2 142.6)" fill="url(#leaf-2)" opacity="0.96"/><ellipse cx="309.1" cy="233.4" rx="9.4" ry="13.1" transform="rotate(3674.4 309.1 233.4)" fill="url(#leaf-0)" opacity="0.96"/><ellipse cx="177.9" cy="197.8" rx="8.5" ry="11.8" transform="rotate(3811.9 177.9 197.8)" fill="url(#leaf-1)" opacity="0.96"/><ellipse cx="307.5" cy="152.7" rx="9.1" ry="12.7" transform="rotate(3949.4 307.5 152.7)" fill="url(#leaf-2)" opacity="0.96"/><ellipse cx="252.5" cy="252.9" rx="9.8" ry="13.6" transform="rotate(4086.9 252.5 252.9)" fill="url(#leaf-0)" opacity="0.96"/><ellipse cx="205.8" cy="144.3" rx="8.8" ry="12.2" transform="rotate(4224.4 205.8 144.3)" fill="url(#leaf-1)" opacity="0.96"/><ellipse cx="338.2" cy="205.0" rx="9.4" ry="13.1" transform="rotate(4361.9 338.2 205.0)" fill="url(#leaf-2)" opacity="0.96"/><ellipse cx="194.9" cy="230.7" rx="8.5" ry="11.8" transform="rotate(4499.4 194.9 230.7)" fill="url(#leaf-0)" opacity="0.96"/><ellipse cx="272.9" cy="133.6" rx="9.1" ry="12.7" transform="rotate(4636.9 272.9 133.6)" fill="url(#leaf-1)" opacity="0.96"/><ellipse cx="299.0" cy="259.1" rx="9.8" ry="13.6" transform="rotate(4774.5 299.0 259.1)" fill="url(#leaf-2)" opacity="0.96"/><ellipse cx="174.7" cy="173.2" rx="8.8" ry="12.2" transform="rotate(4912.0 174.7 173.2)" fill="url(#leaf-0)" opacity="0.96"/><ellipse cx="325.8" cy="168.6" rx="9.4" ry="13.1" transform="rotate(5049.5 325.8 168.6)" fill="url(#leaf-1)" opacity="0.96"/><ellipse cx="223.3" cy="260.2" rx="8.5" ry="11.8" transform="rotate(5187.0 223.3 260.2)" fill="url(#leaf-2)" opacity="0.96"/><ellipse cx="224.8" cy="121.2" rx="9.1" ry="12.7" transform="rotate(5324.5 224.8 121.2)" fill="url(#leaf-0)" opacity="0.96"/><ellipse cx="332.2" cy="229.4" rx="9.8" ry="13.6" transform="rotate(5462.0 332.2 229.4)" fill="url(#leaf-1)" opacity="0.96"/><ellipse cx="177.6" cy="212.4" rx="8.8" ry="12.2" transform="rotate(5599.5 177.6 212.4)" fill="url(#leaf-2)" opacity="0.96"/><ellipse cx="306.4" cy="130.1" rx="9.4" ry="13.1" transform="rotate(5737.0 306.4 130.1)" fill="url(#leaf-0)" opacity="0.96"/><ellipse cx="272.0" cy="276.2" rx="8.5" ry="11.8" transform="rotate(5874.5 272.0 276.2)" fill="url(#leaf-1)" opacity="0.96"/><ellipse cx="187.7" cy="150.4" rx="9.1" ry="12.7" transform="rotate(6012.0 187.7 150.4)" fill="url(#leaf-2)" opacity="0.96"/><ellipse cx="343.1" cy="189.6" rx="9.8" ry="13.6" transform="rotate(6149.5 343.1 189.6)" fill="url(#leaf-0)" opacity="0.96"/><ellipse cx="187.3" cy="257.2" rx="8.8" ry="12.2" transform="rotate(6287.0 187.3 257.2)" fill="url(#leaf-1)" opacity="0.96"/><ellipse cx="257.0" cy="112.3" rx="9.4" ry="13.1" transform="rotate(6424.6 257.0 112.3)" fill="url(#leaf-2)" opacity="0.96"/><ellipse cx="314.9" cy="250.5" rx="8.5" ry="11.8" transform="rotate(6562.1 314.9 250.5)" fill="url(#leaf-0)" opacity="0.96"/><ellipse cx="161.0" cy="187.6" rx="9.1" ry="12.7" transform="rotate(6699.6 161.0 187.6)" fill="url(#leaf-1)" opacity="0.96"/><ellipse cx="341.3" cy="141.5" rx="9.8" ry="13.6" transform="rotate(6837.1 341.3 141.5)" fill="url(#leaf-2)" opacity="0.96"/><ellipse cx="237.9" cy="276.8" rx="8.8" ry="12.2" transform="rotate(6974.6 237.9 276.8)" fill="url(#leaf-0)" opacity="0.96"/><ellipse cx="207.5" cy="129.9" rx="9.4" ry="13.1" transform="rotate(7112.1 207.5 129.9)" fill="url(#leaf-1)" opacity="0.96"/><ellipse cx="356.5" cy="218.9" rx="8.5" ry="11.8" transform="rotate(7249.6 356.5 218.9)" fill="url(#leaf-2)" opacity="0.96"/><ellipse cx="157.9" cy="237.2" rx="9.1" ry="12.7" transform="rotate(7387.1 157.9 237.2)" fill="url(#leaf-0)" opacity="0.96"/><ellipse cx="290.5" cy="118.3" rx="9.8" ry="13.6" transform="rotate(7524.6 290.5 118.3)" fill="url(#leaf-1)" opacity="0.96"/><ellipse cx="292.4" cy="271.6" rx="8.8" ry="12.2" transform="rotate(7662.1 292.4 271.6)" fill="url(#leaf-2)" opacity="0.96"/><ellipse cx="154.6" cy="154.5" rx="9.4" ry="13.1" transform="rotate(7799.6 154.6 154.5)" fill="url(#leaf-0)" opacity="0.96"/><ellipse cx="361.9" cy="168.4" rx="8.5" ry="11.8" transform="rotate(7937.1 361.9 168.4)" fill="url(#leaf-1)" opacity="0.96"/><ellipse cx="205.8" cy="266.5" rx="9.1" ry="12.7" transform="rotate(8074.6 205.8 266.5)" fill="url(#leaf-2)" opacity="0.96"/><ellipse cx="234.3" cy="108.3" rx="9.8" ry="13.6" transform="rotate(8212.2 234.3 108.3)" fill="url(#leaf-0)" opacity="0.96"/><ellipse cx="352.2" cy="253.4" rx="8.8" ry="12.2" transform="rotate(8349.7 352.2 253.4)" fill="url(#leaf-1)" opacity="0.96"/><ellipse cx="147.3" cy="206.3" rx="9.4" ry="13.1" transform="rotate(8487.2 147.3 206.3)" fill="url(#leaf-2)" opacity="0.96"/><ellipse cx="322.0" cy="130.8" rx="8.5" ry="11.8" transform="rotate(8624.7 322.0 130.8)" fill="url(#leaf-0)" opacity="0.96"/><ellipse cx="259.6" cy="291.8" rx="9.1" ry="12.7" transform="rotate(8762.2 259.6 291.8)" fill="url(#leaf-1)" opacity="0.96"/><ellipse cx="171.2" cy="122.3" rx="9.8" ry="13.6" transform="rotate(8899.7 171.2 122.3)" fill="url(#leaf-2)" opacity="0.96"/><ellipse cx="363.8" cy="200.4" rx="8.8" ry="12.2" transform="rotate(9037.2 363.8 200.4)" fill="url(#leaf-0)" opacity="0.96"/><ellipse cx="173.2" cy="252.3" rx="9.4" ry="13.1" transform="rotate(9174.7 173.2 252.3)" fill="url(#leaf-1)" opacity="0.96"/><ellipse cx="273.6" cy="93.0" rx="8.5" ry="11.8" transform="rotate(9312.2 273.6 93.0)" fill="url(#leaf-2)" opacity="0.96"/><ellipse cx="324.4" cy="279.8" rx="9.1" ry="12.7" transform="rotate(9449.7 324.4 279.8)" fill="url(#leaf-0)" opacity="0.96"/><ellipse cx="151.1" cy="174.6" rx="9.8" ry="13.6" transform="rotate(9587.2 151.1 174.6)" fill="url(#leaf-1)" opacity="0.96"/><ellipse cx="356.4" cy="148.1" rx="8.8" ry="12.2" transform="rotate(9724.7 356.4 148.1)" fill="url(#leaf-2)" opacity="0.96"/><ellipse cx="215.6" cy="298.3" rx="9.4" ry="13.1" transform="rotate(9862.3 215.6 298.3)" fill="url(#leaf-0)" opacity="0.96"/><ellipse cx="206.9" cy="103.7" rx="8.5" ry="11.8" transform="rotate(9999.8 206.9 103.7)" fill="url(#leaf-1)" opacity="0.96"/><ellipse cx="357.1" cy="231.9" rx="9.1" ry="12.7" transform="rotate(10137.3 357.1 231.9)" fill="url(#leaf-2)" opacity="0.96"/><ellipse cx="138.7" cy="229.7" rx="9.8" ry="13.6" transform="rotate(10274.8 138.7 229.7)" fill="url(#leaf-0)" opacity="0.96"/><ellipse cx="318.5" cy="97.8" rx="8.8" ry="12.2" transform="rotate(10412.3 318.5 97.8)" fill="url(#leaf-1)" opacity="0.96"/><ellipse cx="284.8" cy="291.0" rx="9.4" ry="13.1" transform="rotate(10549.8 284.8 291.0)" fill="url(#leaf-2)" opacity="0.96"/><ellipse cx="159.4" cy="142.0" rx="8.5" ry="11.8" transform="rotate(10687.3 159.4 142.0)" fill="url(#leaf-0)" opacity="0.96"/><ellipse cx="386.9" cy="177.5" rx="9.1" ry="12.7" transform="rotate(10824.8 386.9 177.5)" fill="url(#leaf-1)" opacity="0.96"/><ellipse cx="174.5" cy="282.1" rx="9.8" ry="13.6" transform="rotate(10962.3 174.5 282.1)" fill="url(#leaf-2)" opacity="0.96"/></g>
</svg>