<?xml version="1.0" encoding="UTF-8"?>
<svg xmlns="http://www.w3.org/2000/svg" viewBox="0 0 512 512" role="img" aria-label="木の成長ステージ 15">
  <defs>
    <linearGradient id="bark" x1="0" y1="0" x2="1" y2="1"><stop stop-color="#8b5a2b"/><stop offset="0.52" stop-color="#6f401d"/><stop offset="1" stop-color="#3e2310"/></linearGradient>
    <radialGradient id="ground" cx="50%" cy="45%"><stop stop-color="#c7e6a6" stop-opacity="0.9"/><stop offset="1" stop-color="#9ec77a" stop-opacity="0.18"/></radialGradient>
    <linearGradient id="leaf-0" x1="0" y1="0" x2="1" y2="1"><stop stop-color="#d7f09e"/><stop offset="1" stop-color="#4e9f49"/></linearGradient>
    <linearGradient id="leaf-1" x1="0" y1="0" x2="1" y2="1"><stop stop-color="#bfe884"/><stop offset="1" stop-color="#3c8a43"/></linearGradient>
    <linearGradient id="leaf-2" x1="0" y1="0" x2="1" y2="1"><stop stop-color="#f2e986"/><stop offset="1" stop-color="#6bab43"/></linearGradient>
    <filter id="soft"><feGaussianBlur stdDeviation="3"/></filter>
  </defs>
  <ellipse cx="256" cy="445" rx="58.8" ry="12.5" fill="url(#ground)" opacity="0.3" filter="url(#soft)"/>
  <path d="M 256.0 427.0 Q 240.5 435.5 228.4 444.0" fill="none" stroke="url(#bark)" stroke-width="2.2" stroke-linecap="round" opacity="0.4"/><path d="M 256.0 429.0 Q 269.6 437.0 286.5 445.0" fill="none" stroke="url(#bark)" stroke-width="2.0" stroke-linecap="round" opacity="0.4"/><path d="M 256.0 432.0 Q 245.6 445.5 240.6 459.0" fill="none" stroke="url(#bark)" stroke-width="1.6" stroke-linecap="round" opacity="0.3"/>
  <path d="M 256 432 C 254.4 401.1, 257.9 366.4, 256 335.6" fill="none" stroke="url(#bark)" stroke-width="11.2" stroke-linecap="round"/>
  <path d="M 256.0 414.6 Q 248.1 406.1 236.7 397.6" fill="none" stroke="url(#bark)" stroke-width="4.7" stroke-linecap="round" opacity="0.3"/><path d="M 256.0 355.1 Q 275.1 340.0 288.2 325.0" fill="none" stroke="url(#bark)" stroke-width="3.5" stroke-linecap="round" opacity="0.2"/>
  <g><ellipse cx="259.2" cy="359.0" rx="4.2" ry="5.8" transform="rotate(97.0 259.2 359.0)" fill="url(#leaf-0)" opacity="0.96"/><ellipse cx="245.9" cy="350.6" rx="4.8" ry="6.7" transform="rotate(234.5 245.9 350.6)" fill="url(#leaf-1)" opacity="0.96"/><ellipse cx="270.2" cy="349.0" rx="5.5" ry="7.6" transform="rotate(372.0 270.2 349.0)" fill="url(#leaf-2)" opacity="0.96"/><ellipse cx="247.5" cy="368.5" rx="4.5" ry="6.2" transform="rotate(509.5 247.5 368.5)" fill="url(#leaf-0)" opacity="0.96"/><ellipse cx="250.1" cy="337.8" rx="5.1" ry="7.1" transform="rotate(647.0 250.1 337.8)" fill="url(#leaf-1)" opacity="0.96"/><ellipse cx="274.0" cy="362.6" rx="4.2" ry="5.8" transform="rotate(784.5 274.0 362.6)" fill="url(#leaf-2)" opacity="0.96"/><ellipse cx="230.8" cy="358.2" rx="4.8" ry="6.7" transform="rotate(922.0 230.8 358.2)" fill="url(#leaf-0)" opacity="0.96"/><ellipse cx="272.5" cy="334.6" rx="5.5" ry="7.6" transform="rotate(1059.6 272.5 334.6)" fill="url(#leaf-1)" opacity="0.96"/><ellipse cx="259.2" cy="375.6" rx="4.5" ry="6.2" transform="rotate(1197.1 259.2 375.6)" fill="url(#leaf-2)" opacity="0.96"/><ellipse cx="234.5" cy="338.4" rx="5.1" ry="7.1" transform="rotate(1334.6 234.5 338.4)" fill="url(#leaf-0)" opacity="0.96"/><ellipse cx="289.8" cy="352.8" rx="4.2" ry="5.8" transform="rotate(1472.1 289.8 352.8)" fill="url(#leaf-1)" opacity="0.96"/><ellipse cx="231.9" cy="373.4" rx="4.8" ry="6.7" transform="rotate(1609.6 231.9 373.4)" fill="url(#leaf-2)" opacity="0.96"/><ellipse cx="257.7" cy="327.8" rx="5.5" ry="7.6" transform="rotate(1747.1 257.7 327.8)" fill="url(#leaf-0)" opacity="0.96"/><ellipse cx="278.5" cy="376.5" rx="4.5" ry="6.2" transform="rotate(1884.6 278.5 376.5)" fill="url(#leaf-1)" opacity="0.96"/><ellipse cx="216.4" cy="349.1" rx="5.1" ry="7.1" transform="rotate(2022.1 216.4 349.1)" fill="url(#leaf-2)" opacity="0.96"/><ellipse cx="286.8" cy="336.2" rx="4.2" ry="5.8" transform="rotate(2159.6 286.8 336.2)" fill="url(#leaf-0)" opacity="0.96"/></g>
</svg>