<?xml version="1.0" encoding="UTF-8"?>
<svg xmlns="http://www.w3.org/2000/svg" viewBox="0 0 512 512" role="img" aria-label="木の成長ステージ 75">
  <defs>
    <linearGradient id="bark" x1="0" y1="0" x2="1" y2="1"><stop stop-color="#8b5a2b"/><stop offset="0.52" stop-color="#6f401d"/><stop offset="1" stop-color="#3e2310"/></linearGradient>
    <radialGradient id="ground" cx="50%" cy="45%"><stop stop-color="#c7e6a6" stop-opacity="0.9"/><stop offset="1" stop-color="#9ec77a" stop-opacity="0.18"/></radialGradient>
    <linearGradient id="leaf-0" x1="0" y1="0" x2="1" y2="1"><stop stop-color="#d7f09e"/><stop offset="1" stop-color="#4e9f49"/></linearGradient>
    <linearGradient id="leaf-1" x1="0" y1="0" x2="1" y2="1"><stop stop-color="#bfe884"/><stop offset="1" stop-color="#3c8a43"/></linearGradient>
    <linearGradient id="leaf-2" x1="0" y1="0" x2="1" y2="1"><stop stop-color="#f2e986"/><stop offset="1" stop-color="#6bab43"/></linearGradient>
    <filter id="soft"><feGaussianBlur stdDeviation="3"/></filter>
  </defs>
  <ellipse cx="256" cy="445" rx="112.0" ry="23.9" fill="url(#ground)" opacity="0.6" filter="url(#soft)"/>
  <path d="M 256.0 427.0 Q 219.9 435.5 187.2 444.0" fill="none" stroke="url(#bark)" stroke-width="7.6" stroke-linecap="round" opacity="1.0"/><path d="M 256.0 429.0 Q 292.1 437.0 331.3 445.0" fill="none" stroke="url(#bark)" stroke-width="6.8" stroke-linecap="round" opacity="1.0"/><path d="M 256.0 432.0 Q 234.1 445.5 217.6 459.0" fill="none" stroke="url(#bark)" stroke-width="5.3" stroke-linecap="round" opacity="0.8"/>
  <path d="M 256 432 C 250.7 343.0, 262.4 242.8, 256 153.8" fill="none" stroke="url(#bark)" stroke-width="37.9" stroke-linecap="round"/>
  <path d="M 256.0 381.9 Q 235.8 358.2 206.1 334.5" fill="none" stroke="url(#bark)" stroke-width="15.9" stroke-linecap="round" opacity="1.0"/><path d="M 256.0 210.0 Q 303.8 179.8 339.5 149.6" fill="none" stroke="url(#bark)" stroke-width="11.9" stroke-linecap="round" opacity="1.0"/><path d="M 256.0 227.2 Q 223.4 199.5 179.8 171.8" fill="none" stroke="url(#bark)" stroke-width="12.3" stroke-linecap="round" opacity="1.0"/><path d="M 256.0 244.5 Q 295.5 219.3 325.0 194.1" fill="none" stroke="url(#bark)" stroke-width="12.7" stroke-linecap="round" opacity="1.0"/><path d="M 256.0 261.7 Q 231.5 230.0 194.3 198.3" fill="none" stroke="url(#bark)" stroke-width="13.1" stroke-linecap="round" opacity="1.0"/><path d="M 256.0 279.0 Q 289.1 249.8 310.5 220.6" fill="none" stroke="url(#bark)" stroke-width="13.5" stroke-linecap="round" opacity="1.0"/><path d="M 256.0 296.2 Q 217.3 269.5 168.0 242.8" fill="none" stroke="url(#bark)" stroke-width="13.9" stroke-linecap="round" opacity="1.0"/><path d="M 256.0 313.5 Q 301.2 289.3 336.8 265.1" fill="none" stroke="url(#bark)" stroke-width="14.3" stroke-linecap="round" opacity="1.0"/><path d="M 256.0 330.7 Q 225.4 300.0 182.5 269.3" fill="none" stroke="url(#bark)" stroke-width="14.7" stroke-linecap="round" opacity="1.0"/><path d="M 256.0 348.0 Q 294.8 319.8 322.3 291.6" fill="none" stroke="url(#bark)" stroke-width="15.1" stroke-linecap="round" opacity="1.0"/><path d="M 256.0 365.2 Q 231.6 339.5 197.0 313.8" fill="none" stroke="url(#bark)" stroke-width="15.5" stroke-linecap="round" opacity="1.0"/><path d="M 256.0 193.3 Q 288.3 161.1 307.7 128.9" fill="none" stroke="url(#bark)" stroke-width="11.5" stroke-linecap="round" opacity="1.0"/><path d="M 256.0 210.5 Q 219.3 180.8 170.7 151.1" fill="none" stroke="url(#bark)" stroke-width="11.9" stroke-linecap="round" opacity="1.0"/>
  <g><ellipse cx="263.5" cy="203.5" rx="8.1" ry="11.2" transform="rotate(349.0 263.5 203.5)" fill="url(#leaf-0)" opacity="0.96"/><ellipse cx="255.3" cy="223.6" rx="8.7" ry="12.1" transform="rotate(486.5 255.3 223.6)" fill="url(#leaf-1)" opacity="0.96"/><ellipse cx="243.1" cy="196.8" rx="9.4" ry="13.0" transform="rotate(624.0 243.1 196.8)" fill="url(#leaf-2)" opacity="0.96"/><ellipse cx="282.7" cy="212.7" rx="8.4" ry="11.7" transform="rotate(761.5 282.7 212.7)" fill="url(#leaf-0)" opacity="0.96"/><ellipse cx="230.4" cy="224.8" rx="9.1" ry="12.6" transform="rotate(899.0 230.4 224.8)" fill="url(#leaf-1)" opacity="0.96"/><ellipse cx="262.6" cy="184.9" rx="8.1" ry="11.2" transform="rotate(1036.5 262.6 184.9)" fill="url(#leaf-2)" opacity="0.96"/><ellipse cx="272.7" cy="234.1" rx="8.7" ry="12.1" transform="rotate(1174.0 272.7 234.1)" fill="url(#leaf-0)" opacity="0.96"/><ellipse cx="217.2" cy="199.4" rx="9.4" ry="13.0" transform="rotate(1311.6 217.2 199.4)" fill="url(#leaf-1)" opacity="0.96"/><ellipse cx="293.5" cy="195.1" rx="8.4" ry="11.7" transform="rotate(1449.1 293.5 195.1)" fill="url(#leaf-2)" opacity="0.96"/><ellipse cx="241.1" cy="240.0" rx="9.1" ry="12.6" transform="rotate(1586.6 241.1 240.0)" fill="url(#leaf-0)" opacity="0.96"/><ellipse cx="240.9" cy="174.6" rx="8.1" ry="11.2" transform="rotate(1724.1 240.9 174.6)" fill="url(#leaf-1)" opacity="0.96"/><ellipse cx="301.1" cy="229.6" rx="8.7" ry="12.1" transform="rotate(1861.6 301.1 229.6)" fill="url(#leaf-2)" opacity="0.96"/><ellipse cx="209.7" cy="220.1" rx="9.4" ry="13.0" transform="rotate(1999.1 209.7 220.1)" fill="url(#leaf-0)" opacity="0.96"/><ellipse cx="281.1" cy="176.8" rx="8.4" ry="11.7" transform="rotate(2136.6 281.1 176.8)" fill="url(#leaf-1)" opacity="0.96"/><ellipse cx="265.4" cy="255.0" rx="9.1" ry="12.6" transform="rotate(2274.1 265.4 255.0)" fill="url(#leaf-2)" opacity="0.96"/><ellipse cx="209.9" cy="179.9" rx="8.1" ry="11.2" transform="rotate(2411.6 209.9 179.9)" fill="url(#leaf-0)" opacity="0.96"/><ellipse cx="308.5" cy="206.0" rx="8.7" ry="12.1" transform="rotate(2549.1 308.5 206.0)" fill="url(#leaf-1)" opacity="0.96"/><ellipse cx="219.0" cy="243.5" rx="9.4" ry="13.0" transform="rotate(2686.6 219.0 243.5)" fill="url(#leaf-2)" opacity="0.96"/><ellipse cx="256.2" cy="156.1" rx="8.4" ry="11.7" transform="rotate(2824.1 256.2 156.1)" fill="url(#leaf-0)" opacity="0.96"/><ellipse cx="298.4" cy="248.8" rx="9.1" ry="12.6" transform="rotate(2961.7 298.4 248.8)" fill="url(#leaf-1)" opacity="0.96"/><ellipse cx="199.0" cy="205.4" rx="8.1" ry="11.2" transform="rotate(3099.2 199.0 205.4)" fill="url(#leaf-2)" opacity="0.96"/><ellipse cx="306.4" cy="177.4" rx="8.7" ry="12.1" transform="rotate(3236.7 306.4 177.4)" fill="url(#leaf-0)" opacity="0.96"/><ellipse cx="243.4" cy="268.6" rx="9.4" ry="13.0" transform="rotate(3374.2 243.4 268.6)" fill="url(#leaf-1)" opacity="0.96"/><ellipse cx="220.8" cy="163.0" rx="8.4" ry="11.7" transform="rotate(3511.7 220.8 163.0)" fill="url(#leaf-2)" opacity="0.96"/><ellipse cx="316.5" cy="223.6" rx="9.1" ry="12.6" transform="rotate(3649.2 316.5 223.6)" fill="url(#leaf-0)" opacity="0.96"/><ellipse cx="191.7" cy="237.6" rx="8.1" ry="11.2" transform="rotate(3786.7 191.7 237.6)" fill="url(#leaf-1)" opacity="0.96"/><ellipse cx="282.3" cy="149.7" rx="8.7" ry="12.1" transform="rotate(3924.2 282.3 149.7)" fill="url(#leaf-2)" opacity="0.96"/><ellipse cx="281.8" cy="262.8" rx="9.4" ry="13.0" transform="rotate(4061.7 281.8 262.8)" fill="url(#leaf-0)" opacity="0.96"/><ellipse cx="193.1" cy="184.9" rx="8.4" ry="11.7" transform="rotate(4199.2 193.1 184.9)" fill="url(#leaf-1)" opacity="0.96"/><ellipse cx="332.8" cy="189.7" rx="9.1" ry="12.6" transform="rotate(4336.7 332.8 189.7)" fill="url(#leaf-2)" opacity="0.96"/><ellipse cx="216.3" cy="267.1" rx="8.1" ry="11.2" transform="rotate(4474.2 216.3 267.1)" fill="url(#leaf-0)" opacity="0.96"/><ellipse cx="240.9" cy="151.5" rx="8.7" ry="12.1" transform="rotate(4611.7 240.9 151.5)" fill="url(#leaf-1)" opacity="0.96"/><ellipse cx="319.4" cy="247.4" rx="9.4" ry="13.0" transform="rotate(4749.3 319.4 247.4)" fill="url(#leaf-2)" opacity="0.96"/><ellipse cx="169.9" cy="218.9" rx="8.4" ry="11.7" transform="rotate(4886.8 169.9 218.9)" fill="url(#leaf-0)" opacity="0.96"/><ellipse cx="307.8" cy="158.4" rx="9.1" ry="12.6" transform="rotate(5024.3 307.8 158.4)" fill="url(#leaf-1)" opacity="0.96"/><ellipse cx="258.9" cy="273.0" rx="8.1" ry="11.2" transform="rotate(5161.8 258.9 273.0)" fill="url(#leaf-2)" opacity="0.96"/><ellipse cx="195.3" cy="158.2" rx="8.7" ry="12.1" transform="rotate(5299.3 195.3 158.2)" fill="url(#leaf-0)" opacity="0.96"/><ellipse cx="346.6" cy="213.5" rx="9.4" ry="13.0" transform="rotate(5436.8 346.6 213.5)" fill="url(#leaf-1)" opacity="0.96"/><ellipse cx="193.8" cy="253.2" rx="8.4" ry="11.7" transform="rotate(5574.3 193.8 253.2)" fill="url(#leaf-2)" opacity="0.96"/><ellipse cx="267.1" cy="141.8" rx="9.1" ry="12.6" transform="rotate(5711.8 267.1 141.8)" fill="url(#leaf-0)" opacity="0.96"/><ellipse cx="309.5" cy="274.8" rx="8.1" ry="11.2" transform="rotate(5849.3 309.5 274.8)" fill="url(#leaf-1)" opacity="0.96"/><ellipse cx="166.0" cy="192.5" rx="8.7" ry="12.1" transform="rotate(5986.8 166.0 192.5)" fill="url(#leaf-2)" opacity="0.96"/><ellipse cx="327.7" cy="175.4" rx="9.4" ry="13.0" transform="rotate(6124.3 327.7 175.4)" fill="url(#leaf-0)" opacity="0.96"/><ellipse cx="228.6" cy="281.4" rx="8.4" ry="11.7" transform="rotate(6261.8 228.6 281.4)" fill="url(#leaf-1)" opacity="0.96"/><ellipse cx="214.3" cy="133.3" rx="9.1" ry="12.6" transform="rotate(6399.4 214.3 133.3)" fill="url(#leaf-2)" opacity="0.96"/><ellipse cx="341.1" cy="239.9" rx="8.1" ry="11.2" transform="rotate(6536.9 341.1 239.9)" fill="url(#leaf-0)" opacity="0.96"/><ellipse cx="174.9" cy="234.1" rx="8.7" ry="12.1" transform="rotate(6674.4 174.9 234.1)" fill="url(#leaf-1)" opacity="0.96"/><ellipse cx="301.9" cy="136.9" rx="9.4" ry="13.0" transform="rotate(6811.9 301.9 136.9)" fill="url(#leaf-2)" opacity="0.96"/><ellipse cx="282.1" cy="293.8" rx="8.4" ry="11.7" transform="rotate(6949.4 282.1 293.8)" fill="url(#leaf-0)" opacity="0.96"/><ellipse cx="178.8" cy="167.8" rx="9.1" ry="12.6" transform="rotate(7086.9 178.8 167.8)" fill="url(#leaf-1)" opacity="0.96"/><ellipse cx="346.8" cy="196.9" rx="8.1" ry="11.2" transform="rotate(7224.4 346.8 196.9)" fill="url(#leaf-2)" opacity="0.96"/><ellipse cx="190.9" cy="280.0" rx="8.7" ry="12.1" transform="rotate(7361.9 190.9 280.0)" fill="url(#leaf-0)" opacity="0.96"/><ellipse cx="247.7" cy="122.5" rx="9.4" ry="13.0" transform="rotate(7499.4 247.7 122.5)" fill="url(#leaf-1)" opacity="0.96"/><ellipse cx="323.9" cy="262.8" rx="8.4" ry="11.7" transform="rotate(7636.9 323.9 262.8)" fill="url(#leaf-2)" opacity="0.96"/><ellipse cx="156.1" cy="209.1" rx="9.1" ry="12.6" transform="rotate(7774.4 156.1 209.1)" fill="url(#leaf-0)" opacity="0.96"/><ellipse cx="338.9" cy="146.9" rx="8.1" ry="11.2" transform="rotate(7911.9 338.9 146.9)" fill="url(#leaf-1)" opacity="0.96"/><ellipse cx="246.2" cy="296.1" rx="8.7" ry="12.1" transform="rotate(8049.4 246.2 296.1)" fill="url(#leaf-2)" opacity="0.96"/><ellipse cx="198.3" cy="145.6" rx="9.4" ry="13.0" transform="rotate(8187.0 198.3 145.6)" fill="url(#leaf-0)" opacity="0.96"/><ellipse cx="362.7" cy="226.3" rx="8.4" ry="11.7" transform="rotate(8324.5 362.7 226.3)" fill="url(#leaf-1)" opacity="0.96"/><ellipse cx="158.8" cy="260.9" rx="9.1" ry="12.6" transform="rotate(8462.0 158.8 260.9)" fill="url(#leaf-2)" opacity="0.96"/><ellipse cx="283.2" cy="127.2" rx="8.1" ry="11.2" transform="rotate(8599.5 283.2 127.2)" fill="url(#leaf-0)" opacity="0.96"/><ellipse cx="302.0" cy="285.6" rx="8.7" ry="12.1" transform="rotate(8737.0 302.0 285.6)" fill="url(#leaf-1)" opacity="0.96"/><ellipse cx="146.9" cy="175.5" rx="9.4" ry="13.0" transform="rotate(8874.5 146.9 175.5)" fill="url(#leaf-2)" opacity="0.96"/><ellipse cx="362.5" cy="173.6" rx="8.4" ry="11.7" transform="rotate(9012.0 362.5 173.6)" fill="url(#leaf-0)" opacity="0.96"/><ellipse cx="212.1" cy="287.1" rx="9.1" ry="12.6" transform="rotate(9149.5 212.1 287.1)" fill="url(#leaf-1)" opacity="0.96"/><ellipse cx="224.1" cy="122.0" rx="8.1" ry="11.2" transform="rotate(9287.0 224.1 122.0)" fill="url(#leaf-2)" opacity="0.96"/><ellipse cx="361.3" cy="261.9" rx="8.7" ry="12.1" transform="rotate(9424.5 361.3 261.9)" fill="url(#leaf-0)" opacity="0.96"/><ellipse cx="145.2" cy="229.5" rx="9.4" ry="13.0" transform="rotate(9562.0 145.2 229.5)" fill="url(#leaf-1)" opacity="0.96"/><ellipse cx="316.7" cy="138.4" rx="8.4" ry="11.7" transform="rotate(9699.5 316.7 138.4)" fill="url(#leaf-2)" opacity="0.96"/><ellipse cx="270.3" cy="308.1" rx="9.1" ry="12.6" transform="rotate(9837.1 270.3 308.1)" fill="url(#leaf-0)" opacity="0.96"/><ellipse cx="161.0" cy="141.4" rx="8.1" ry="11.2" transform="rotate(9974.6 161.0 141.4)" fill="url(#leaf-1)" opacity="0.96"/><ellipse cx="367.1" cy="206.6" rx="8.7" ry="12.1" transform="rotate(10112.1 367.1 206.6)" fill="url(#leaf-2)" opacity="0.96"/><ellipse cx="177.6" cy="274.3" rx="9.4" ry="13.0" transform="rotate(10249.6 177.6 274.3)" fill="url(#leaf-0)" opacity="0.96"/></g>
</svg>