<?xml version="1.0" encoding="UTF-8"?>
<svg xmlns="http://www.w3.org/2000/svg" viewBox="0 0 512 512" role="img" aria-label="木の成長ステージ 20">
  <defs>
    <linearGradient id="bark" x1="0" y1="0" x2="1" y2="1"><stop stop-color="#8b5a2b"/><stop offset="0.52" stop-color="#6f401d"/><stop offset="1" stop-color="#3e2310"/></linearGradient>
    <radialGradient id="ground" cx="50%" cy="45%"><stop stop-color="#c7e6a6" stop-opacity="0.9"/><stop offset="1" stop-color="#9ec77a" stop-opacity="0.18"/></radialGradient>
    <linearGradient id="leaf-0" x1="0" y1="0" x2="1" y2="1"><stop stop-color="#d7f09e"/><stop offset="1" stop-color="#4e9f49"/></linearGradient>
    <linearGradient id="leaf-1" x1="0" y1="0" x2="1" y2="1"><stop stop-color="#bfe884"/><stop offset="1" stop-color="#3c8a43"/></linearGradient>
    <linearGradient id="leaf-2" x1="0" y1="0" x2="1" y2="1"><stop stop-color="#f2e986"/><stop offset="1" stop-color="#6bab43"/></linearGradient>
    <filter id="soft"><feGaussianBlur stdDeviation="3"/></filter>
  </defs>
  <ellipse cx="256" cy="445" rx="63.2" ry="13.5" fill="url(#ground)" opacity="0.4" filter="url(#soft)"/>
  <path d="M 256.0 427.0 Q 238.8 435.5 224.9 444.0" fill="none" stroke="url(#bark)" stroke-width="2.7" stroke-linecap="round" opacity="0.5"/><path d="M 256.0 429.0 Q 271.5 437.0 290.2 445.0" fill="none" stroke="url(#bark)" stroke-width="2.4" stroke-linecap="round" opacity="0.5"/><path d="M 256.0 432.0 Q 244.7 445.5 238.7 459.0" fill="none" stroke="url(#bark)" stroke-width="1.9" stroke-linecap="round" opacity="0.4"/>
  <path d="M 256 432 C 254.1 396.3, 258.3 356.1, 256 320.4" fill="none" stroke="url(#bark)" stroke-width="13.4" stroke-linecap="round"/>
  <path d="M 256.0 411.9 Q 247.1 402.1 234.2 392.3" fill="none" stroke="url(#bark)" stroke-width="5.6" stroke-linecap="round" opacity="0.3"/><path d="M 256.0 343.0 Q 277.5 326.7 292.5 310.4" fill="none" stroke="url(#bark)" stroke-width="4.2" stroke-linecap="round" opacity="0.3"/><path d="M 256.0 349.9 Q 242.1 336.1 222.7 322.3" fill="none" stroke="url(#bark)" stroke-width="4.4" stroke-linecap="round" opacity="0.3"/>
  <g><ellipse cx="256.7" cy="347.2" rx="4.5" ry="6.2" transform="rotate(118.0 256.7 347.2)" fill="url(#leaf-0)" opacity="0.96"/><ellipse cx="247.5" cy="335.5" rx="5.1" ry="7.1" transform="rotate(255.5 247.5 335.5)" fill="url(#leaf-1)" opacity="0.96"/><ellipse cx="272.7" cy="341.5" rx="5.8" ry="8.0" transform="rotate(393.0 272.7 341.5)" fill="url(#leaf-2)" opacity="0.96"/><ellipse cx="242.0" cy="352.8" rx="4.8" ry="6.7" transform="rotate(530.5 242.0 352.8)" fill="url(#leaf-0)" opacity="0.96"/><ellipse cx="257.4" cy="325.8" rx="5.5" ry="7.6" transform="rotate(668.0 257.4 325.8)" fill="url(#leaf-1)" opacity="0.96"/><ellipse cx="270.2" cy="356.6" rx="4.5" ry="6.2" transform="rotate(805.5 270.2 356.6)" fill="url(#leaf-2)" opacity="0.96"/><ellipse cx="228.9" cy="338.2" rx="5.1" ry="7.1" transform="rotate(943.0 228.9 338.2)" fill="url(#leaf-0)" opacity="0.96"/><ellipse cx="278.5" cy="329.4" rx="5.8" ry="8.0" transform="rotate(1080.6 278.5 329.4)" fill="url(#leaf-1)" opacity="0.96"/><ellipse cx="249.6" cy="363.1" rx="4.8" ry="6.7" transform="rotate(1218.1 249.6 363.1)" fill="url(#leaf-2)" opacity="0.96"/><ellipse cx="241.1" cy="318.8" rx="5.5" ry="7.6" transform="rotate(1355.6 241.1 318.8)" fill="url(#leaf-0)" opacity="0.96"/><ellipse cx="288.6" cy="351.2" rx="4.5" ry="6.2" transform="rotate(1493.1 288.6 351.2)" fill="url(#leaf-1)" opacity="0.96"/><ellipse cx="226.8" cy="352.3" rx="5.1" ry="7.1" transform="rotate(1630.6 226.8 352.3)" fill="url(#leaf-2)" opacity="0.96"/><ellipse cx="269.4" cy="316.9" rx="5.8" ry="8.0" transform="rotate(1768.1 269.4 316.9)" fill="url(#leaf-0)" opacity="0.96"/><ellipse cx="268.2" cy="372.4" rx="4.8" ry="6.7" transform="rotate(1905.6 268.2 372.4)" fill="url(#leaf-1)" opacity="0.96"/><ellipse cx="221.6" cy="325.8" rx="5.5" ry="7.6" transform="rotate(2043.1 221.6 325.8)" fill="url(#leaf-2)" opacity="0.96"/><ellipse cx="290.8" cy="334.9" rx="4.5" ry="6.2" transform="rotate(2180.6 290.8 334.9)" fill="url(#leaf-0)" opacity="0.96"/><ellipse cx="234.0" cy="368.8" rx="5.1" ry="7.1" transform="rotate(2318.1 234.0 368.8)" fill="url(#leaf-1)" opacity="0.96"/><ellipse cx="249.5" cy="304.7" rx="5.8" ry="8.0" transform="rotate(2455.6 249.5 304.7)" fill="url(#leaf-2)" opacity="0.96"/><ellipse cx="288.9" cy="364.1" rx="4.8" ry="6.7" transform="rotate(2593.1 288.9 364.1)" fill="url(#leaf-0)" opacity="0.96"/><ellipse cx="216.2" cy="343.7" rx="5.5" ry="7.6" transform="rotate(2730.7 216.2 343.7)" fill="url(#leaf-1)" opacity="0.96"/><ellipse cx="288.0" cy="314.3" rx="4.5" ry="6.2" transform="rotate(2868.2 288.0 314.3)" fill="url(#leaf-2)" opacity="0.96"/></g>
</svg>