<?xml version="1.0" encoding="UTF-8"?>
<svg xmlns="http://www.w3.org/2000/svg" viewBox="0 0 512 512" role="img" aria-label="木の成長ステージ 80">
  <defs>
    <linearGradient id="bark" x1="0" y1="0" x2="1" y2="1"><stop stop-color="#8b5a2b"/><stop offset="0.52" stop-color="#6f401d"/><stop offset="1" stop-color="#3e2310"/></linearGradient>
    <radialGradient id="ground" cx="50%" cy="45%"><stop stop-color="#c7e6a6" stop-opacity="0.9"/><stop offset="1" stop-color="#9ec77a" stop-opacity="0.18"/></radialGradient>
    <linearGradient id="leaf-0" x1="0" y1="0" x2="1" y2="1"><stop stop-color="#d7f09e"/><stop offset="1" stop-color="#4e9f49"/></linearGradient>
    <linearGradient id="leaf-1" x1="0" y1="0" x2="1" y2="1"><stop stop-color="#bfe884"/><stop offset="1" stop-color="#3c8a43"/></linearGradient>
    <linearGradient id="leaf-2" x1="0" y1="0" x2="1" y2="1"><stop stop-color="#f2e986"/><stop offset="1" stop-color="#6bab43"/></linearGradient>
    <filter id="soft"><feGaussianBlur stdDeviation="3"/></filter>
  </defs>
  <ellipse cx="256" cy="445" rx="116.5" ry="24.8" fill="url(#ground)" opacity="0.6" filter="url(#soft)"/>
  <path d="M 256.0 427.0 Q 218.2 435.5 183.7 444.0" fill="none" stroke="url(#bark)" stroke-width="8.0" stroke-linecap="round" opacity="1.0"/><path d="M 256.0 429.0 Q 293.9 437.0 335.1 445.0" fill="none" stroke="url(#bark)" stroke-width="7.2" stroke-linecap="round" opacity="1.0"/><path d="M 256.0 432.0 Q 233.1 445.5 215.7 459.0" fill="none" stroke="url(#bark)" stroke-width="5.6" stroke-linecap="round" opacity="0.8"/>
  <path d="M 256 432 C 250.4 338.1, 262.8 232.5, 256 138.6" fill="none" stroke="url(#bark)" stroke-width="40.1" stroke-linecap="round"/>
  <path d="M 256.0 379.2 Q 234.8 354.2 203.5 329.3" fill="none" stroke="url(#bark)" stroke-width="16.8" stroke-linecap="round" opacity="1.0"/><path d="M 256.0 197.9 Q 306.2 166.4 343.8 135.0" fill="none" stroke="url(#bark)" stroke-width="12.6" stroke-linecap="round" opacity="1.0"/><path d="M 256.0 216.1 Q 221.7 187.1 175.9 158.2" fill="none" stroke="url(#bark)" stroke-width="13.0" stroke-linecap="round" opacity="1.0"/><path d="M 256.0 234.3 Q 297.5 207.8 328.5 181.4" fill="none" stroke="url(#bark)" stroke-width="13.5" stroke-linecap="round" opacity="1.0"/><path d="M 256.0 252.4 Q 230.1 219.5 191.1 186.5" fill="none" stroke="url(#bark)" stroke-width="13.9" stroke-linecap="round" opacity="1.0"/><path d="M 256.0 270.6 Q 290.7 240.2 313.2 209.7" fill="none" stroke="url(#bark)" stroke-width="14.3" stroke-linecap="round" opacity="1.0"/><path d="M 256.0 288.8 Q 215.3 260.9 163.4 232.9" fill="none" stroke="url(#bark)" stroke-width="14.7" stroke-linecap="round" opacity="1.0"/><path d="M 256.0 307.0 Q 303.5 281.6 340.9 256.1" fill="none" stroke="url(#bark)" stroke-width="15.1" stroke-linecap="round" opacity="1.0"/><path d="M 256.0 325.2 Q 223.7 293.3 178.7 261.3" fill="none" stroke="url(#bark)" stroke-width="15.6" stroke-linecap="round" opacity="1.0"/><path d="M 256.0 343.4 Q 296.7 313.9 325.7 284.5" fill="none" stroke="url(#bark)" stroke-width="16.0" stroke-linecap="round" opacity="1.0"/><path d="M 256.0 361.6 Q 230.4 334.6 194.0 307.7" fill="none" stroke="url(#bark)" stroke-width="16.4" stroke-linecap="round" opacity="1.0"/><path d="M 256.0 180.3 Q 289.9 146.8 310.4 113.4" fill="none" stroke="url(#bark)" stroke-width="12.2" stroke-linecap="round" opacity="1.0"/><path d="M 256.0 198.5 Q 217.3 167.5 166.3 136.6" fill="none" stroke="url(#bark)" stroke-width="12.6" stroke-linecap="round" opacity="1.0"/><path d="M 256.0 216.6 Q 302.7 188.2 338.1 159.7" fill="none" stroke="url(#bark)" stroke-width="13.0" stroke-linecap="round" opacity="1.0"/>
  <g><ellipse cx="265.5" cy="194.2" rx="8.4" ry="11.7" transform="rotate(370.0 265.5 194.2)" fill="url(#leaf-0)" opacity="0.96"/><ellipse cx="249.7" cy="210.0" rx="9.1" ry="12.6" transform="rotate(507.5 249.7 210.0)" fill="url(#leaf-1)" opacity="0.96"/><ellipse cx="248.9" cy="180.4" rx="9.7" ry="13.5" transform="rotate(645.0 248.9 180.4)" fill="url(#leaf-2)" opacity="0.96"/><ellipse cx="281.2" cy="209.3" rx="8.7" ry="12.1" transform="rotate(782.5 281.2 209.3)" fill="url(#leaf-0)" opacity="0.96"/><ellipse cx="227.1" cy="203.8" rx="9.4" ry="13.0" transform="rotate(920.0 227.1 203.8)" fill="url(#leaf-1)" opacity="0.96"/><ellipse cx="272.7" cy="176.6" rx="8.4" ry="11.7" transform="rotate(1057.5 272.7 176.6)" fill="url(#leaf-2)" opacity="0.96"/><ellipse cx="261.7" cy="228.4" rx="9.1" ry="12.6" transform="rotate(1195.0 261.7 228.4)" fill="url(#leaf-0)" opacity="0.96"/><ellipse cx="223.5" cy="176.0" rx="9.7" ry="13.5" transform="rotate(1332.6 223.5 176.0)" fill="url(#leaf-1)" opacity="0.96"/><ellipse cx="295.0" cy="195.5" rx="8.7" ry="12.1" transform="rotate(1470.1 295.0 195.5)" fill="url(#leaf-2)" opacity="0.96"/><ellipse cx="228.0" cy="222.5" rx="9.4" ry="13.0" transform="rotate(1607.6 228.0 222.5)" fill="url(#leaf-0)" opacity="0.96"/><ellipse cx="256.9" cy="156.8" rx="8.4" ry="11.7" transform="rotate(1745.1 256.9 156.8)" fill="url(#leaf-1)" opacity="0.96"/><ellipse cx="289.0" cy="229.3" rx="9.1" ry="12.6" transform="rotate(1882.6 289.0 229.3)" fill="url(#leaf-2)" opacity="0.96"/><ellipse cx="210.4" cy="193.7" rx="9.7" ry="13.5" transform="rotate(2020.1 210.4 193.7)" fill="url(#leaf-0)" opacity="0.96"/><ellipse cx="296.7" cy="172.5" rx="8.7" ry="12.1" transform="rotate(2157.6 296.7 172.5)" fill="url(#leaf-1)" opacity="0.96"/><ellipse cx="244.8" cy="245.9" rx="9.4" ry="13.0" transform="rotate(2295.1 244.8 245.9)" fill="url(#leaf-2)" opacity="0.96"/><ellipse cx="227.1" cy="158.0" rx="8.4" ry="11.7" transform="rotate(2432.6 227.1 158.0)" fill="url(#leaf-0)" opacity="0.96"/><ellipse cx="306.3" cy="210.0" rx="9.1" ry="12.6" transform="rotate(2570.1 306.3 210.0)" fill="url(#leaf-1)" opacity="0.96"/><ellipse cx="201.9" cy="220.3" rx="9.7" ry="13.5" transform="rotate(2707.6 201.9 220.3)" fill="url(#leaf-2)" opacity="0.96"/><ellipse cx="279.6" cy="146.5" rx="8.7" ry="12.1" transform="rotate(2845.1 279.6 146.5)" fill="url(#leaf-0)" opacity="0.96"/><ellipse cx="277.6" cy="244.2" rx="9.4" ry="13.0" transform="rotate(2982.7 277.6 244.2)" fill="url(#leaf-1)" opacity="0.96"/><ellipse cx="202.5" cy="175.7" rx="8.4" ry="11.7" transform="rotate(3120.2 202.5 175.7)" fill="url(#leaf-2)" opacity="0.96"/><ellipse cx="322.8" cy="181.3" rx="9.1" ry="12.6" transform="rotate(3257.7 322.8 181.3)" fill="url(#leaf-0)" opacity="0.96"/><ellipse cx="219.7" cy="248.2" rx="9.7" ry="13.5" transform="rotate(3395.2 219.7 248.2)" fill="url(#leaf-1)" opacity="0.96"/><ellipse cx="243.6" cy="145.8" rx="8.7" ry="12.1" transform="rotate(3532.7 243.6 145.8)" fill="url(#leaf-2)" opacity="0.96"/><ellipse cx="310.8" cy="231.5" rx="9.4" ry="13.0" transform="rotate(3670.2 310.8 231.5)" fill="url(#leaf-0)" opacity="0.96"/><ellipse cx="179.2" cy="204.9" rx="8.4" ry="11.7" transform="rotate(3807.7 179.2 204.9)" fill="url(#leaf-1)" opacity="0.96"/><ellipse cx="303.9" cy="151.7" rx="9.1" ry="12.6" transform="rotate(3945.2 303.9 151.7)" fill="url(#leaf-2)" opacity="0.96"/><ellipse cx="257.5" cy="254.5" rx="9.7" ry="13.5" transform="rotate(4082.7 257.5 254.5)" fill="url(#leaf-0)" opacity="0.96"/><ellipse cx="202.8" cy="151.1" rx="8.7" ry="12.1" transform="rotate(4220.2 202.8 151.1)" fill="url(#leaf-1)" opacity="0.96"/><ellipse cx="338.5" cy="202.3" rx="9.4" ry="13.0" transform="rotate(4357.7 338.5 202.3)" fill="url(#leaf-2)" opacity="0.96"/><ellipse cx="198.0" cy="236.9" rx="8.4" ry="11.7" transform="rotate(4495.2 198.0 236.9)" fill="url(#leaf-0)" opacity="0.96"/><ellipse cx="267.2" cy="136.5" rx="9.1" ry="12.6" transform="rotate(4632.7 267.2 136.5)" fill="url(#leaf-1)" opacity="0.96"/><ellipse cx="303.4" cy="257.5" rx="9.7" ry="13.5" transform="rotate(4770.3 303.4 257.5)" fill="url(#leaf-2)" opacity="0.96"/><ellipse cx="172.7" cy="180.6" rx="8.7" ry="12.1" transform="rotate(4907.8 172.7 180.6)" fill="url(#leaf-0)" opacity="0.96"/><ellipse cx="323.0" cy="166.9" rx="9.4" ry="13.0" transform="rotate(5045.3 323.0 166.9)" fill="url(#leaf-1)" opacity="0.96"/><ellipse cx="229.8" cy="262.6" rx="8.4" ry="11.7" transform="rotate(5182.8 229.8 262.6)" fill="url(#leaf-2)" opacity="0.96"/><ellipse cx="218.8" cy="126.6" rx="9.1" ry="12.6" transform="rotate(5320.3 218.8 126.6)" fill="url(#leaf-0)" opacity="0.96"/><ellipse cx="335.5" cy="227.2" rx="9.7" ry="13.5" transform="rotate(5457.8 335.5 227.2)" fill="url(#leaf-1)" opacity="0.96"/><ellipse cx="180.3" cy="219.3" rx="8.7" ry="12.1" transform="rotate(5595.3 180.3 219.3)" fill="url(#leaf-2)" opacity="0.96"/><ellipse cx="299.5" cy="131.3" rx="9.4" ry="13.0" transform="rotate(5732.8 299.5 131.3)" fill="url(#leaf-0)" opacity="0.96"/><ellipse cx="278.9" cy="277.0" rx="8.4" ry="11.7" transform="rotate(5870.3 278.9 277.0)" fill="url(#leaf-1)" opacity="0.96"/><ellipse cx="183.6" cy="157.0" rx="9.1" ry="12.6" transform="rotate(6007.8 183.6 157.0)" fill="url(#leaf-2)" opacity="0.96"/><ellipse cx="340.4" cy="186.9" rx="9.7" ry="13.5" transform="rotate(6145.3 340.4 186.9)" fill="url(#leaf-0)" opacity="0.96"/><ellipse cx="194.2" cy="262.3" rx="8.7" ry="12.1" transform="rotate(6282.8 194.2 262.3)" fill="url(#leaf-1)" opacity="0.96"/><ellipse cx="249.7" cy="114.6" rx="9.4" ry="13.0" transform="rotate(6420.4 249.7 114.6)" fill="url(#leaf-2)" opacity="0.96"/><ellipse cx="319.4" cy="249.0" rx="8.4" ry="11.7" transform="rotate(6557.9 319.4 249.0)" fill="url(#leaf-0)" opacity="0.96"/><ellipse cx="163.1" cy="195.9" rx="9.1" ry="12.6" transform="rotate(6695.4 163.1 195.9)" fill="url(#leaf-1)" opacity="0.96"/><ellipse cx="335.3" cy="139.5" rx="9.7" ry="13.5" transform="rotate(6832.9 335.3 139.5)" fill="url(#leaf-2)" opacity="0.96"/><ellipse cx="245.0" cy="280.6" rx="8.7" ry="12.1" transform="rotate(6970.4 245.0 280.6)" fill="url(#leaf-0)" opacity="0.96"/><ellipse cx="202.6" cy="136.3" rx="9.4" ry="13.0" transform="rotate(7107.9 202.6 136.3)" fill="url(#leaf-1)" opacity="0.96"/><ellipse cx="355.6" cy="214.6" rx="8.4" ry="11.7" transform="rotate(7245.4 355.6 214.6)" fill="url(#leaf-2)" opacity="0.96"/><ellipse cx="162.2" cy="245.3" rx="9.1" ry="12.6" transform="rotate(7382.9 162.2 245.3)" fill="url(#leaf-0)" opacity="0.96"/><ellipse cx="283.8" cy="118.5" rx="9.7" ry="13.5" transform="rotate(7520.4 283.8 118.5)" fill="url(#leaf-1)" opacity="0.96"/><ellipse cx="298.0" cy="270.0" rx="8.7" ry="12.1" transform="rotate(7657.9 298.0 270.0)" fill="url(#leaf-2)" opacity="0.96"/><ellipse cx="153.5" cy="163.9" rx="9.4" ry="13.0" transform="rotate(7795.4 153.5 163.9)" fill="url(#leaf-0)" opacity="0.96"/><ellipse cx="359.5" cy="164.2" rx="8.4" ry="11.7" transform="rotate(7932.9 359.5 164.2)" fill="url(#leaf-1)" opacity="0.96"/><ellipse cx="212.3" cy="271.7" rx="9.1" ry="12.6" transform="rotate(8070.4 212.3 271.7)" fill="url(#leaf-2)" opacity="0.96"/><ellipse cx="227.5" cy="114.5" rx="9.7" ry="13.5" transform="rotate(8208.0 227.5 114.5)" fill="url(#leaf-0)" opacity="0.96"/><ellipse cx="355.6" cy="249.0" rx="8.7" ry="12.1" transform="rotate(8345.5 355.6 249.0)" fill="url(#leaf-1)" opacity="0.96"/><ellipse cx="147.9" cy="215.5" rx="9.4" ry="13.0" transform="rotate(8483.0 147.9 215.5)" fill="url(#leaf-2)" opacity="0.96"/><ellipse cx="315.5" cy="130.1" rx="8.4" ry="11.7" transform="rotate(8620.5 315.5 130.1)" fill="url(#leaf-0)" opacity="0.96"/><ellipse cx="267.7" cy="291.2" rx="9.1" ry="12.6" transform="rotate(8758.0 267.7 291.2)" fill="url(#leaf-1)" opacity="0.96"/><ellipse cx="165.5" cy="130.5" rx="9.7" ry="13.5" transform="rotate(8895.5 165.5 130.5)" fill="url(#leaf-2)" opacity="0.96"/><ellipse cx="364.4" cy="196.2" rx="8.7" ry="12.1" transform="rotate(9033.0 364.4 196.2)" fill="url(#leaf-0)" opacity="0.96"/><ellipse cx="180.0" cy="258.4" rx="9.4" ry="13.0" transform="rotate(9170.5 180.0 258.4)" fill="url(#leaf-1)" opacity="0.96"/><ellipse cx="264.4" cy="96.8" rx="8.4" ry="11.7" transform="rotate(9308.0 264.4 96.8)" fill="url(#leaf-2)" opacity="0.96"/><ellipse cx="331.7" cy="277.9" rx="9.1" ry="12.6" transform="rotate(9445.5 331.7 277.9)" fill="url(#leaf-0)" opacity="0.96"/><ellipse cx="149.8" cy="183.6" rx="9.7" ry="13.5" transform="rotate(9583.0 149.8 183.6)" fill="url(#leaf-1)" opacity="0.96"/><ellipse cx="349.5" cy="145.8" rx="8.7" ry="12.1" transform="rotate(9720.5 349.5 145.8)" fill="url(#leaf-2)" opacity="0.96"/><ellipse cx="225.1" cy="301.5" rx="9.4" ry="13.0" transform="rotate(9858.1 225.1 301.5)" fill="url(#leaf-0)" opacity="0.96"/><ellipse cx="198.7" cy="108.8" rx="8.4" ry="11.7" transform="rotate(9995.6 198.7 108.8)" fill="url(#leaf-1)" opacity="0.96"/><ellipse cx="358.9" cy="227.7" rx="9.1" ry="12.6" transform="rotate(10133.1 358.9 227.7)" fill="url(#leaf-2)" opacity="0.96"/><ellipse cx="145.0" cy="238.2" rx="9.7" ry="13.5" transform="rotate(10270.6 145.0 238.2)" fill="url(#leaf-0)" opacity="0.96"/><ellipse cx="309.5" cy="97.2" rx="8.7" ry="12.1" transform="rotate(10408.1 309.5 97.2)" fill="url(#leaf-1)" opacity="0.96"/><ellipse cx="293.2" cy="291.8" rx="9.4" ry="13.0" transform="rotate(10545.6 293.2 291.8)" fill="url(#leaf-2)" opacity="0.96"/><ellipse cx="157.1" cy="151.5" rx="8.4" ry="11.7" transform="rotate(10683.1 157.1 151.5)" fill="url(#leaf-0)" opacity="0.96"/><ellipse cx="382.2" cy="172.5" rx="9.1" ry="12.6" transform="rotate(10820.6 382.2 172.5)" fill="url(#leaf-1)" opacity="0.96"/><ellipse cx="182.1" cy="289.4" rx="9.7" ry="13.5" transform="rotate(10958.1 182.1 289.4)" fill="url(#leaf-2)" opacity="0.96"/></g>
</svg>