<?xml version="1.0" encoding="UTF-8"?>
<svg xmlns="http://www.w3.org/2000/svg" viewBox="0 0 512 512" role="img" aria-label="木の成長ステージ 21">
  <defs>
    <linearGradient id="bark" x1="0" y1="0" x2="1" y2="1"><stop stop-color="#8b5a2b"/><stop offset="0.52" stop-color="#6f401d"/><stop offset="1" stop-color="#3e2310"/></linearGradient>
    <radialGradient id="ground" cx="50%" cy="45%"><stop stop-color="#c7e6a6" stop-opacity="0.9"/><stop offset="1" stop-color="#9ec77a" stop-opacity="0.18"/></radialGradient>
    <linearGradient id="leaf-0" x1="0" y1="0" x2="1" y2="1"><stop stop-color="#d7f09e"/><stop offset="1" stop-color="#4e9f49"/></linearGradient>
    <linearGradient id="leaf-1" x1="0" y1="0" x2="1" y2="1"><stop stop-color="#bfe884"/><stop offset="1" stop-color="#3c8a43"/></linearGradient>
    <linearGradient id="leaf-2" x1="0" y1="0" x2="1" y2="1"><stop stop-color="#f2e986"/><stop offset="1" stop-color="#6bab43"/></linearGradient>
    <filter id="soft"><feGaussianBlur stdDeviation="3"/></filter>
  </defs>
  <ellipse cx="256" cy="445" rx="64.1" ry="13.7" fill="url(#ground)" opacity="0.4" filter="url(#soft)"/>
  <path d="M 256.0 427.0 Q 238.4 435.5 224.3 444.0" fill="none" stroke="url(#bark)" stroke-width="2.8" stroke-linecap="round" opacity="0.6"/><path d="M 256.0 429.0 Q 271.9 437.0 290.9 445.0" fill="none" stroke="url(#bark)" stroke-width="2.5" stroke-linecap="round" opacity="0.5"/><path d="M 256.0 432.0 Q 244.5 445.5 238.3 459.0" fill="none" stroke="url(#bark)" stroke-width="1.9" stroke-linecap="round" opacity="0.4"/>
  <path d="M 256 432 C 254.1 395.3, 258.4 354.1, 256 317.4" fill="none" stroke="url(#bark)" stroke-width="13.9" stroke-linecap="round"/>
  <path d="M 256.0 411.4 Q 246.8 401.3 233.7 391.3" fill="none" stroke="url(#bark)" stroke-width="5.8" stroke-linecap="round" opacity="0.4"/><path d="M 256.0 340.5 Q 278.0 324.0 293.3 307.4" fill="none" stroke="url(#bark)" stroke-width="4.4" stroke-linecap="round" opacity="0.4"/><path d="M 256.0 347.6 Q 241.8 333.6 221.9 319.5" fill="none" stroke="url(#bark)" stroke-width="4.5" stroke-linecap="round" opacity="0.3"/>
  <g><ellipse cx="256.2" cy="345.0" rx="4.5" ry="6.3" transform="rotate(122.2 256.2 345.0)" fill="url(#leaf-0)" opacity="0.96"/><ellipse cx="247.7" cy="332.3" rx="5.2" ry="7.2" transform="rotate(259.7 247.7 332.3)" fill="url(#leaf-1)" opacity="0.96"/><ellipse cx="273.3" cy="340.2" rx="5.8" ry="8.1" transform="rotate(397.2 273.3 340.2)" fill="url(#leaf-2)" opacity="0.96"/><ellipse cx="240.9" cy="349.7" rx="4.9" ry="6.8" transform="rotate(534.7 240.9 349.7)" fill="url(#leaf-0)" opacity="0.96"/><ellipse cx="258.8" cy="323.1" rx="5.5" ry="7.7" transform="rotate(672.2 258.8 323.1)" fill="url(#leaf-1)" opacity="0.96"/><ellipse cx="269.4" cy="355.8" rx="4.5" ry="6.3" transform="rotate(809.7 269.4 355.8)" fill="url(#leaf-2)" opacity="0.96"/><ellipse cx="228.6" cy="334.0" rx="5.2" ry="7.2" transform="rotate(947.2 228.6 334.0)" fill="url(#leaf-0)" opacity="0.96"/><ellipse cx="279.8" cy="328.3" rx="5.8" ry="8.1" transform="rotate(1084.8 279.8 328.3)" fill="url(#leaf-1)" opacity="0.96"/><ellipse cx="247.4" cy="361.0" rx="4.9" ry="6.8" transform="rotate(1222.3 247.4 361.0)" fill="url(#leaf-2)" opacity="0.96"/><ellipse cx="242.6" cy="314.5" rx="5.5" ry="7.7" transform="rotate(1359.8 242.6 314.5)" fill="url(#leaf-0)" opacity="0.96"/><ellipse cx="288.4" cy="351.0" rx="4.5" ry="6.3" transform="rotate(1497.3 288.4 351.0)" fill="url(#leaf-1)" opacity="0.96"/><ellipse cx="225.5" cy="348.2" rx="5.2" ry="7.2" transform="rotate(1634.8 225.5 348.2)" fill="url(#leaf-2)" opacity="0.96"/><ellipse cx="272.2" cy="314.3" rx="5.8" ry="8.1" transform="rotate(1772.3 272.2 314.3)" fill="url(#leaf-0)" opacity="0.96"/><ellipse cx="265.9" cy="371.9" rx="4.9" ry="6.8" transform="rotate(1909.8 265.9 371.9)" fill="url(#leaf-1)" opacity="0.96"/><ellipse cx="222.7" cy="321.1" rx="5.5" ry="7.7" transform="rotate(2047.3 222.7 321.1)" fill="url(#leaf-2)" opacity="0.96"/><ellipse cx="292.2" cy="334.5" rx="4.5" ry="6.3" transform="rotate(2184.8 292.2 334.5)" fill="url(#leaf-0)" opacity="0.96"/><ellipse cx="230.5" cy="366.2" rx="5.2" ry="7.2" transform="rotate(2322.3 230.5 366.2)" fill="url(#leaf-1)" opacity="0.96"/><ellipse cx="252.6" cy="300.9" rx="5.8" ry="8.1" transform="rotate(2459.8 252.6 300.9)" fill="url(#leaf-2)" opacity="0.96"/><ellipse cx="287.2" cy="363.9" rx="4.9" ry="6.8" transform="rotate(2597.3 287.2 363.9)" fill="url(#leaf-0)" opacity="0.96"/><ellipse cx="214.7" cy="338.8" rx="5.5" ry="7.7" transform="rotate(2734.9 214.7 338.8)" fill="url(#leaf-1)" opacity="0.96"/><ellipse cx="291.8" cy="312.8" rx="4.5" ry="6.3" transform="rotate(2872.4 291.8 312.8)" fill="url(#leaf-2)" opacity="0.96"/></g>
</svg>