<?xml version="1.0" encoding="UTF-8"?>
<svg xmlns="http://www.w3.org/2000/svg" viewBox="0 0 512 512" role="img" aria-label="木の成長ステージ 39">
  <defs>
    <linearGradient id="bark" x1="0" y1="0" x2="1" y2="1"><stop stop-color="#8b5a2b"/><stop offset="0.52" stop-color="#6f401d"/><stop offset="1" stop-color="#3e2310"/></linearGradient>
    <radialGradient id="ground" cx="50%" cy="45%"><stop stop-color="#c7e6a6" stop-opacity="0.9"/><stop offset="1" stop-color="#9ec77a" stop-opacity="0.18"/></radialGradient>
    <linearGradient id="leaf-0" x1="0" y1="0" x2="1" y2="1"><stop stop-color="#d7f09e"/><stop offset="1" stop-color="#4e9f49"/></linearGradient>
    <linearGradient id="leaf-1" x1="0" y1="0" x2="1" y2="1"><stop stop-color="#bfe884"/><stop offset="1" stop-color="#3c8a43"/></linearGradient>
    <linearGradient id="leaf-2" x1="0" y1="0" x2="1" y2="1"><stop stop-color="#f2e986"/><stop offset="1" stop-color="#6bab43"/></linearGradient>
    <filter id="soft"><feGaussianBlur stdDeviation="3"/></filter>
  </defs>
  <ellipse cx="256" cy="445" rx="80.1" ry="17.1" fill="url(#ground)" opacity="0.5" filter="url(#soft)"/>
  <path d="M 256.0 427.0 Q 232.2 435.5 211.9 444.0" fill="none" stroke="url(#bark)" stroke-width="4.4" stroke-linecap="round" opacity="1.0"/><path d="M 256.0 429.0 Q 278.6 437.0 304.4 445.0" fill="none" stroke="url(#bark)" stroke-width="3.9" stroke-linecap="round" opacity="1.0"/><path d="M 256.0 432.0 Q 241.0 445.5 231.4 459.0" fill="none" stroke="url(#bark)" stroke-width="3.1" stroke-linecap="round" opacity="0.8"/>
  <path d="M 256 432 C 252.9 377.9, 259.7 317.0, 256 262.8" fill="none" stroke="url(#bark)" stroke-width="21.9" stroke-linecap="round"/>
  <path d="M 256.0 401.6 Q 243.2 387.0 224.5 372.4" fill="none" stroke="url(#bark)" stroke-width="9.2" stroke-linecap="round" opacity="0.7"/><path d="M 256.0 297.0 Q 286.6 275.9 308.7 254.8" fill="none" stroke="url(#bark)" stroke-width="6.9" stroke-linecap="round" opacity="0.7"/><path d="M 256.0 307.5 Q 235.6 288.9 207.9 270.3" fill="none" stroke="url(#bark)" stroke-width="7.1" stroke-linecap="round" opacity="0.7"/><path d="M 256.0 318.0 Q 281.0 301.9 299.6 285.8" fill="none" stroke="url(#bark)" stroke-width="7.3" stroke-linecap="round" opacity="0.7"/><path d="M 256.0 328.5 Q 241.0 305.9 217.0 283.3" fill="none" stroke="url(#bark)" stroke-width="7.6" stroke-linecap="round" opacity="0.6"/><path d="M 256.0 339.0 Q 277.2 318.9 290.4 298.8" fill="none" stroke="url(#bark)" stroke-width="7.8" stroke-linecap="round" opacity="0.6"/>
  <g><ellipse cx="247.7" cy="298.2" rx="5.7" ry="8.0" transform="rotate(197.8 247.7 298.2)" fill="url(#leaf-0)" opacity="0.96"/><ellipse cx="263.4" cy="286.0" rx="6.4" ry="8.9" transform="rotate(335.3 263.4 286.0)" fill="url(#leaf-1)" opacity="0.96"/><ellipse cx="259.2" cy="309.5" rx="7.0" ry="9.8" transform="rotate(472.8 259.2 309.5)" fill="url(#leaf-2)" opacity="0.96"/><ellipse cx="239.1" cy="285.7" rx="6.1" ry="8.4" transform="rotate(610.3 239.1 285.7)" fill="url(#leaf-0)" opacity="0.96"/><ellipse cx="281.8" cy="293.8" rx="6.7" ry="9.3" transform="rotate(747.8 281.8 293.8)" fill="url(#leaf-1)" opacity="0.96"/><ellipse cx="238.9" cy="312.4" rx="5.7" ry="8.0" transform="rotate(885.3 238.9 312.4)" fill="url(#leaf-2)" opacity="0.96"/><ellipse cx="255.5" cy="274.0" rx="6.4" ry="8.9" transform="rotate(1022.8 255.5 274.0)" fill="url(#leaf-0)" opacity="0.96"/><ellipse cx="278.2" cy="315.7" rx="7.0" ry="9.8" transform="rotate(1160.4 278.2 315.7)" fill="url(#leaf-1)" opacity="0.96"/><ellipse cx="221.0" cy="294.2" rx="6.1" ry="8.4" transform="rotate(1297.9 221.0 294.2)" fill="url(#leaf-2)" opacity="0.96"/><ellipse cx="281.4" cy="279.1" rx="6.7" ry="9.3" transform="rotate(1435.4 281.4 279.1)" fill="url(#leaf-0)" opacity="0.96"/><ellipse cx="250.6" cy="324.8" rx="5.7" ry="8.0" transform="rotate(1572.9 250.6 324.8)" fill="url(#leaf-1)" opacity="0.96"/><ellipse cx="233.2" cy="267.5" rx="6.4" ry="8.9" transform="rotate(1710.4 233.2 267.5)" fill="url(#leaf-2)" opacity="0.96"/><ellipse cx="295.8" cy="304.4" rx="7.0" ry="9.8" transform="rotate(1847.9 295.8 304.4)" fill="url(#leaf-0)" opacity="0.96"/><ellipse cx="222.7" cy="311.3" rx="6.1" ry="8.4" transform="rotate(1985.4 222.7 311.3)" fill="url(#leaf-1)" opacity="0.96"/><ellipse cx="269.8" cy="262.4" rx="6.7" ry="9.3" transform="rotate(2122.9 269.8 262.4)" fill="url(#leaf-2)" opacity="0.96"/><ellipse cx="275.3" cy="333.2" rx="5.7" ry="8.0" transform="rotate(2260.4 275.3 333.2)" fill="url(#leaf-0)" opacity="0.96"/><ellipse cx="214.9" cy="280.9" rx="6.4" ry="8.9" transform="rotate(2397.9 214.9 280.9)" fill="url(#leaf-1)" opacity="0.96"/><ellipse cx="297.0" cy="284.6" rx="7.0" ry="9.8" transform="rotate(2535.4 297.0 284.6)" fill="url(#leaf-2)" opacity="0.96"/><ellipse cx="231.6" cy="333.1" rx="6.1" ry="8.4" transform="rotate(2672.9 231.6 333.1)" fill="url(#leaf-0)" opacity="0.96"/><ellipse cx="243.5" cy="252.8" rx="6.7" ry="9.3" transform="rotate(2810.5 243.5 252.8)" fill="url(#leaf-1)" opacity="0.96"/><ellipse cx="295.8" cy="318.6" rx="5.7" ry="8.0" transform="rotate(2948.0 295.8 318.6)" fill="url(#leaf-2)" opacity="0.96"/><ellipse cx="207.1" cy="302.3" rx="6.4" ry="8.9" transform="rotate(3085.5 207.1 302.3)" fill="url(#leaf-0)" opacity="0.96"/><ellipse cx="292.2" cy="258.7" rx="7.0" ry="9.8" transform="rotate(3223.0 292.2 258.7)" fill="url(#leaf-1)" opacity="0.96"/><ellipse cx="259.5" cy="343.3" rx="6.1" ry="8.4" transform="rotate(3360.5 259.5 343.3)" fill="url(#leaf-2)" opacity="0.96"/><ellipse cx="219.3" cy="266.5" rx="6.7" ry="9.3" transform="rotate(3498.0 219.3 266.5)" fill="url(#leaf-0)" opacity="0.96"/><ellipse cx="312.4" cy="297.4" rx="5.7" ry="8.0" transform="rotate(3635.5 312.4 297.4)" fill="url(#leaf-1)" opacity="0.96"/><ellipse cx="208.4" cy="330.8" rx="6.4" ry="8.9" transform="rotate(3773.0 208.4 330.8)" fill="url(#leaf-2)" opacity="0.96"/><ellipse cx="262.6" cy="247.7" rx="7.0" ry="9.8" transform="rotate(3910.5 262.6 247.7)" fill="url(#leaf-0)" opacity="0.96"/><ellipse cx="288.4" cy="333.6" rx="6.1" ry="8.4" transform="rotate(4048.0 288.4 333.6)" fill="url(#leaf-1)" opacity="0.96"/><ellipse cx="193.7" cy="285.5" rx="6.7" ry="9.3" transform="rotate(4185.5 193.7 285.5)" fill="url(#leaf-2)" opacity="0.96"/><ellipse cx="313.2" cy="267.4" rx="5.7" ry="8.0" transform="rotate(4323.0 313.2 267.4)" fill="url(#leaf-0)" opacity="0.96"/><ellipse cx="239.0" cy="344.0" rx="6.4" ry="8.9" transform="rotate(4460.5 239.0 344.0)" fill="url(#leaf-1)" opacity="0.96"/><ellipse cx="229.5" cy="250.5" rx="7.0" ry="9.8" transform="rotate(4598.1 229.5 250.5)" fill="url(#leaf-2)" opacity="0.96"/><ellipse cx="321.1" cy="317.7" rx="6.1" ry="8.4" transform="rotate(4735.6 321.1 317.7)" fill="url(#leaf-0)" opacity="0.96"/><ellipse cx="192.0" cy="316.7" rx="6.7" ry="9.3" transform="rotate(4873.1 192.0 316.7)" fill="url(#leaf-1)" opacity="0.96"/><ellipse cx="283.5" cy="250.1" rx="5.7" ry="8.0" transform="rotate(5010.6 283.5 250.1)" fill="url(#leaf-2)" opacity="0.96"/><ellipse cx="274.4" cy="350.3" rx="6.4" ry="8.9" transform="rotate(5148.1 274.4 350.3)" fill="url(#leaf-0)" opacity="0.96"/><ellipse cx="192.1" cy="263.2" rx="7.0" ry="9.8" transform="rotate(5285.6 192.1 263.2)" fill="url(#leaf-1)" opacity="0.96"/><ellipse cx="323.9" cy="285.2" rx="6.1" ry="8.4" transform="rotate(5423.1 323.9 285.2)" fill="url(#leaf-2)" opacity="0.96"/></g>
</svg>